<?xml version="1.0" encoding="UTF-8"?>
<svg width="374px" height="136px" viewBox="0 0 374 136" version="1.1" xmlns="http://www.w3.org/2000/svg" xmlns:xlink="http://www.w3.org/1999/xlink">
    <!-- Generator: Sketch 53.2 (72643) - https://sketchapp.com -->
    <title>Certified Story Time Logo</title>
    <desc>Created with Sketch.</desc>
    <defs>
        <polygon id="path-1" points="0.713271429 0.755822034 19.6118863 0.755822034 19.6118863 21.2835305 0.713271429 21.2835305"></polygon>
        <polygon id="path-3" points="0 136.244178 373.810677 136.244178 373.810677 1.16101695 0 1.16101695"></polygon>
    </defs>
    <g id="Breakpoints" stroke="none" stroke-width="1" fill="none" fill-rule="evenodd">
        <g id="Story-Time-1440px-Movie-Poster-Card-Hover" transform="translate(-70.000000, -93.000000)">
            <g id="Masthead" transform="translate(0.000000, 50.000000)">
                <g id="Certified-Story-Time-Logo" transform="translate(70.000000, 42.000000)">
                    <g id="Group-35">
                        <g id="Group-3" transform="translate(101.049689, 0.405195)">
                            <mask id="mask-2" fill="white">
                                <use xlink:href="#path-1"></use>
                            </mask>
                            <g id="Clip-2"></g>
                            <path d="M0.713271429,11.0758695 L0.713271429,11.0189797 C0.713271429,5.26730169 5.11415963,0.755589831 11.0946752,0.755589831 C15.1273708,0.755589831 17.722141,2.44719153 19.471346,4.84469153 L15.3527,8.03052203 C14.2248925,6.64891186 12.9275075,5.71893729 11.0377621,5.71893729 C8.27341429,5.71893729 6.3267559,8.08625085 6.3267559,10.9632508 L6.3267559,11.0189797 C6.3267559,13.9795729 8.27341429,16.2923186 11.0377621,16.2923186 C13.0970851,16.2923186 14.3096814,15.3333186 15.4944019,13.8948186 L19.6118863,16.8275475 C17.7511783,19.3945559 15.2400354,21.2835305 10.8960602,21.2835305 C5.2547,21.2835305 0.713271429,16.9691915 0.713271429,11.0758695" id="Fill-1" fill="#FEFEFE" mask="url(#mask-2)"></path>
                        </g>
                        <polygon id="Fill-4" fill="#FEFEFE" points="125.145278 1.55576271 141.02634 1.55576271 141.02634 6.18009322 130.561309 6.18009322 130.561309 9.19757627 140.039073 9.19757627 140.039073 13.5107542 130.561309 13.5107542 130.561309 16.6408559 141.166881 16.6408559 141.166881 21.2930508 125.145278 21.2930508"></polygon>
                        <path d="M155.214181,11.0297771 C157.048175,11.0297771 158.148107,10.1276669 158.148107,8.68916695 L158.148107,8.63343814 C158.148107,7.05445508 156.992424,6.26496356 155.186306,6.26496356 L151.576393,6.26496356 L151.576393,11.0297771 L155.214181,11.0297771 Z M146.102287,1.55587881 L155.439511,1.55587881 C158.458225,1.55587881 160.545424,2.34537034 161.871846,3.67009068 C163.027529,4.82646356 163.621051,6.32069237 163.621051,8.26655678 L163.621051,8.32228559 C163.621051,11.3687941 162.013548,13.3703873 159.559318,14.4129805 L164.269163,21.2931669 L157.979691,21.2931669 L154.001585,15.3150907 L151.576393,15.3150907 L151.576393,21.2931669 L146.102287,21.2931669 L146.102287,1.55587881 Z" id="Fill-6" fill="#FEFEFE"></path>
                        <polygon id="Fill-8" fill="#FEFEFE" points="173.32275 6.34948559 167.427024 6.34948559 167.427024 1.55564661 184.719297 1.55564661 184.719297 6.34948559 178.794533 6.34948559 178.794533 21.2929347 173.32275 21.2929347"></polygon>
                        <mask id="mask-4" fill="white">
                            <use xlink:href="#path-3"></use>
                        </mask>
                        <g id="Clip-11"></g>
                        <polygon id="Fill-10" fill="#FEFEFE" mask="url(#mask-4)" points="189.371764 21.2930508 194.843547 21.2930508 194.843547 1.55576271 189.371764 1.55576271"></polygon>
                        <polygon id="Fill-12" fill="#FEFEFE" mask="url(#mask-4)" points="200.57016 1.55576271 216.366434 1.55576271 216.366434 6.34960169 206.041943 6.34960169 206.041943 9.70494068 215.379166 9.70494068 215.379166 14.2445169 206.041943 14.2445169 206.041943 21.2930508 200.57016 21.2930508"></polygon>
                        <polygon id="Fill-13" fill="#FEFEFE" mask="url(#mask-4)" points="221.132727 21.2930508 226.604509 21.2930508 226.604509 1.55576271 221.132727 1.55576271"></polygon>
                        <polygon id="Fill-14" fill="#FEFEFE" mask="url(#mask-4)" points="232.33031 1.55576271 248.211372 1.55576271 248.211372 6.18009322 237.746341 6.18009322 237.746341 9.19757627 247.224105 9.19757627 247.224105 13.5107542 237.746341 13.5107542 237.746341 16.6408559 248.351912 16.6408559 248.351912 21.2930508 232.33031 21.2930508"></polygon>
                        <path d="M258.759798,6.3775822 L258.759798,16.4435992 L260.988699,16.4435992 C264.289655,16.4435992 266.460481,14.6393788 266.460481,11.4523873 L266.460481,11.3966585 C266.460481,8.23869237 264.289655,6.3775822 260.988699,6.3775822 L258.759798,6.3775822 Z M253.288016,1.55587881 L260.931786,1.55587881 C267.95532,1.55587881 272.04609,5.61595508 272.04609,11.3119042 L272.04609,11.3687941 C272.04609,17.0635822 267.899568,21.2931669 260.819121,21.2931669 L253.288016,21.2931669 L253.288016,1.55587881 Z" id="Fill-15" fill="#FEFEFE" mask="url(#mask-4)"></path>
                        <path d="M184.504421,50.4771856 C184.864483,50.506211 185.215253,50.5584568 185.569508,50.6048975 C185.216415,50.5584568 184.866806,50.506211 184.504421,50.4771856" id="Fill-16" fill="#FEFEFE" mask="url(#mask-4)"></path>
                        <path d="M182.744647,50.4083373 C179.236945,50.4083373 176.168286,51.208278 173.673404,52.5550576 C176.28792,51.2047949 179.408845,50.4118203 182.769038,50.4083373 C182.760907,50.4083373 182.752777,50.4083373 182.744647,50.4083373" id="Fill-17" fill="#FEFEFE" mask="url(#mask-4)"></path>
                        <path d="M187.760312,51.0032424 C187.91479,51.0415559 188.062299,51.0926407 188.215616,51.1344373 C188.062299,51.0914797 187.915952,51.0415559 187.760312,51.0032424" id="Fill-18" fill="#FEFEFE" mask="url(#mask-4)"></path>
                        <path d="M186.150253,50.6753712 C186.550968,50.7403881 186.941229,50.8274644 187.331489,50.9145407 C186.94239,50.8274644 186.554452,50.7403881 186.150253,50.6753712" id="Fill-19" fill="#FEFEFE" mask="url(#mask-4)"></path>
                        <path d="M179.568666,76.3849305 C179.461809,76.3686763 179.359598,76.3466169 179.253902,76.3280407 C179.359598,76.3466169 179.461809,76.3686763 179.568666,76.3849305" id="Fill-20" fill="#FEFEFE" mask="url(#mask-4)"></path>
                        <path d="M186.116222,76.4065254 C188.477532,76.0489322 190.57983,75.3012373 192.365042,74.256322 C190.526402,75.2768559 188.417135,76.0175847 186.134806,76.3833051 C186.128998,76.3914322 186.122029,76.3983983 186.116222,76.4065254" id="Fill-21" fill="#FEFEFE" mask="url(#mask-4)"></path>
                        <path d="M70.9318876,57.6819924 C63.9083534,56.1053314 62.1881857,55.1033737 62.1881857,52.8103653 L62.1881857,52.6675602 C62.1881857,50.805289 63.8375025,49.4434161 67.2058255,49.4434161 C71.6485273,49.4434161 76.6650056,51.0908992 81.2517323,54.3881873 L88.203254,44.574111 C82.7558627,40.2040432 76.0912292,37.9110347 67.5635646,37.9110347 C55.5235522,37.9110347 48.1411174,44.6449331 48.1411174,53.95745 L48.1411174,54.1002551 C48.1411174,64.3439076 56.3830553,67.3532636 67.0618006,69.7890771 C73.9413099,71.4365602 75.5894652,72.5116619 75.5894652,74.6607042 L75.5894652,74.8035093 C75.5894652,76.9525517 73.5835708,78.2412805 69.7843348,78.2412805 C63.9803658,78.2412805 58.5329745,76.1642212 53.5164963,72.2248907 L45.7774839,81.4654246 C52.0112043,86.9814161 60.3971671,89.7759839 69.2837323,89.7759839 C81.4666081,89.7771449 89.5645211,83.68645 89.5645211,73.4439585 L89.5645211,73.3011534 C89.5645211,63.9154924 82.3981236,60.19095 70.9318876,57.6819924" id="Fill-22" fill="#FEFEFE" mask="url(#mask-4)"></path>
                        <polygon id="Fill-23" fill="#FEFEFE" mask="url(#mask-4)" points="97.8752193 50.9493712 112.853803 50.9493712 112.853803 88.9169475 126.756847 88.9181085 126.756847 50.9505322 141.806281 50.9505322 141.806281 38.7726254 97.8752193 38.7714644"></polygon>
                        <path d="M192.365506,74.2559737 C190.580295,75.300889 188.477997,76.0497449 186.116686,76.4061771 C183.876171,79.4317873 179.794693,80.5347534 179.794693,80.5347534 L179.794693,76.4259144 C179.718034,76.4143042 179.64486,76.396889 179.568202,76.3852788 C179.462506,76.3678636 179.359134,76.3469653 179.253438,76.328389 C171.758339,75.0477873 166.135562,69.8162449 166.135562,63.5281771 C166.135562,58.9351941 169.136854,54.8994992 173.673637,52.5554059 C176.168519,51.2074653 179.237177,50.4086856 182.744879,50.4086856 C182.753009,50.4086856 182.759978,50.4086856 182.76927,50.4086856 C182.776239,50.4086856 182.783208,50.4086856 182.790177,50.4086856 C183.368599,50.4086856 183.941214,50.4319059 184.504537,50.4771856 C184.866922,50.506211 185.216531,50.5584568 185.568463,50.6048975 C185.76127,50.6304398 185.959885,50.644372 186.15037,50.6757195 C186.554568,50.7407364 186.942506,50.8278127 187.331606,50.914889 C187.473307,50.9462364 187.619655,50.9682958 187.760196,51.0031263 C187.915835,51.0414398 188.062183,51.0925246 188.2155,51.1343212 C194.746562,52.9083551 199.444792,57.7811432 199.444792,63.5281771 C199.444792,67.9655839 196.644438,71.8816941 192.365506,74.2559737 M182.92491,38.2598042 C163.498978,38.2598042 148.930401,49.5739144 148.930401,63.5281771 L148.930401,63.6663381 C148.930401,77.6206008 163.318947,88.79655 182.744879,88.79655 C202.169649,88.797711 216.739388,77.4824398 216.739388,63.5304992 L216.739388,63.3911771 C216.739388,49.4380754 202.350842,38.2609653 182.92491,38.2598042" id="Fill-24" fill="#FEFEFE" mask="url(#mask-4)"></path>
                        <path d="M258.025968,56.8995831 C258.025968,60.5533034 255.231422,62.8451508 250.572683,62.8451508 L241.328378,62.8451508 L241.328378,50.7380661 L250.50067,50.7380661 C255.087397,50.7380661 258.025968,52.7443034 258.025968,56.756778 L258.025968,56.8995831 Z M271.929012,55.9684475 L271.929012,55.8256424 C271.929012,50.8820322 270.424881,47.0855068 267.48631,44.1481339 C264.117987,40.7800237 258.81462,38.7761085 251.146459,38.7761085 L227.425335,38.7749475 L227.425335,88.9204305 L241.328378,88.9215915 L241.328378,73.7343288 L247.491248,73.7343288 L257.596217,88.9215915 L273.577167,88.9215915 L261.609167,71.4413203 C267.845211,68.7918797 271.929012,63.7054644 271.929012,55.9684475 L271.929012,55.9684475 Z" id="Fill-25" fill="#FEFEFE" mask="url(#mask-4)"></path>
                        <polygon id="Fill-26" fill="#FEFEFE" mask="url(#mask-4)" points="312.480484 38.7779661 302.088627 57.0442458 291.768783 38.7779661 275.930696 38.7779661 295.066255 70.1532881 295.066255 88.9222881 308.969298 88.9234492 308.969298 69.939661 328.032845 38.7779661"></polygon>
                        <path d="M176.920119,63.9343008 C176.920119,62.8069534 176.004865,61.892072 174.877057,61.892072 C173.74925,61.892072 172.833995,62.8069534 172.833995,63.9343008 C172.833995,65.0616483 173.74925,65.9765297 174.877057,65.9765297 C176.004865,65.9765297 176.920119,65.0616483 176.920119,63.9343008" id="Fill-27" fill="#E4E4E4" mask="url(#mask-4)"></path>
                        <path d="M182.789945,65.9760653 C183.917752,65.9760653 184.833007,65.0623449 184.833007,63.9338364 C184.833007,62.806489 183.917752,61.8927686 182.789945,61.8927686 C181.662137,61.8927686 180.746883,62.806489 180.746883,63.9338364 C180.746883,65.0623449 181.662137,65.9760653 182.789945,65.9760653" id="Fill-28" fill="#E4E4E4" mask="url(#mask-4)"></path>
                        <path d="M190.7026,65.9760653 C191.830407,65.9760653 192.745662,65.0623449 192.745662,63.9338364 C192.745662,62.806489 191.830407,61.8927686 190.7026,61.8927686 C189.574793,61.8927686 188.659538,62.806489 188.659538,63.9338364 C188.659538,65.0623449 189.574793,65.9760653 190.7026,65.9760653" id="Fill-29" fill="#E4E4E4" mask="url(#mask-4)"></path>
                        <polygon id="Fill-30" fill="#FEFEFE" mask="url(#mask-4)" points="138.711722 113.727996 129.828641 113.727996 129.828641 106.505309 155.882039 106.505309 155.882039 113.727996 146.957144 113.727996 146.957144 136.244758 138.711722 136.244758"></polygon>
                        <polygon id="Fill-31" fill="#FEFEFE" mask="url(#mask-4)" points="162.893261 136.244178 171.138683 136.244178 171.138683 106.504729 162.893261 106.504729"></polygon>
                        <polygon id="Fill-32" fill="#FEFEFE" mask="url(#mask-4)" points="179.764842 106.504729 188.477184 106.504729 195.576215 118.018534 202.672923 106.504729 211.385265 106.504729 211.385265 136.244178 203.182817 136.244178 203.182817 119.165619 195.576215 130.805975 195.405476 130.805975 187.840687 119.207415 187.840687 136.244178 179.764842 136.244178"></polygon>
                        <polygon id="Fill-33" fill="#FEFEFE" mask="url(#mask-4)" points="219.84022 106.504729 243.769251 106.504729 243.769251 113.473153 228.000853 113.473153 228.000853 118.018534 242.281381 118.018534 242.281381 124.517907 228.000853 124.517907 228.000853 129.233958 243.980642 129.233958 243.980642 136.244178 219.84022 136.244178"></polygon>
                        <path d="M118.615378,129.601187 C118.615378,128.033814 117.37839,126.74973 115.810378,126.698645 C107.267614,126.421162 97.2834398,126.323636 84.5209801,126.323636 C52.0503466,126.323636 23.7181043,127.859662 20.4996137,128.041942 C19.1766758,128.160365 11.6176944,128.557433 5.96936522,128.845365 L10.355154,25.9955178 L16.779359,25.9955178 C15.8571354,46.4816619 14.9349118,84.7580686 14.0115267,105.245374 C13.8036199,109.890603 13.5840981,114.316399 13.3750298,118.953501 C13.3587689,119.052187 13.3529615,119.143908 13.3622534,119.227501 C13.5086012,120.511586 14.8594149,120.999213 16.1881602,120.866857 C16.2926944,120.855247 17.6318932,120.719408 20.0001727,120.510425 C22.5926199,120.361814 71.0906634,117.656645 115.604794,119.311094 C117.250626,119.371467 118.615378,118.060679 118.615378,116.413196 L118.615378,116.120619 C118.615378,114.560213 117.385359,113.272645 115.825477,113.214594 C72.6633217,111.594975 25.6763776,114.08884 20.3881106,114.383738 L20.3881106,114.32917 C20.2104025,114.343103 20.0443093,114.355874 19.8828621,114.368645 C19.9885578,111.44056 20.0954149,108.513636 20.2034335,105.585552 C21.0966199,81.085772 21.9909677,38.7957297 22.884154,14.297111 C35.356241,14.911289 47.8422658,15.0390008 60.3213217,14.6872127 L60.3213217,14.6848907 C64.6188373,14.4619754 85.415328,14.1995856 89.1100298,13.8605686 C89.1111913,13.8605686 89.1123528,13.8605686 89.1135143,13.8605686 C90.2622286,13.7525941 91.146123,12.6124754 91.082241,11.3295517 C91.0717876,11.0985093 91.0601727,10.87095 91.0485578,10.6410686 C90.9846758,9.36162797 90.0020547,8.39914492 88.8661168,8.50247542 C88.8649553,8.50247542 88.8637938,8.50247542 88.8637938,8.50247542 C84.9414398,8.86239068 63.7895329,9.11200932 59.2271975,9.33956864 C46.1708807,9.67974661 33.107595,9.49630593 20.0605702,8.77183136 C18.6842037,8.69520424 17.5110981,9.74940763 17.4483776,11.1263737 C17.3240981,13.8895941 17.1998186,16.6528144 17.0755391,19.4160347 L17.0406944,20.1904331 L7.59661366,20.1904331 C6.05066957,20.1904331 4.77651429,21.4002127 4.69637143,22.9443653 L0.00394906832,131.754874 C-0.039026087,132.575713 0.268768944,133.374492 0.848352795,133.956162 C1.42793665,134.537831 2.23401118,134.853628 3.04821615,134.803704 C3.69516646,134.771196 18.904887,134.011891 20.9200733,133.831933 C24.0270609,133.656619 52.2094708,132.128721 84.5209801,132.128721 C97.2253652,132.128721 107.145657,132.226247 115.623378,132.502569 C117.263402,132.555975 118.615378,131.241704 118.615378,129.601187 M255.195067,129.601187 C255.195067,131.241704 256.547042,132.555975 258.188229,132.502569 C266.664788,132.226247 276.58508,132.128721 289.290626,132.128721 C321.602135,132.128721 349.784545,133.656619 352.796291,133.824967 C354.906719,134.011891 370.11644,134.771196 370.762229,134.803704 C371.577595,134.852467 372.382508,134.537831 372.962092,133.956162 C373.541676,133.374492 373.849471,132.575713 373.806496,131.754874 L369.115235,22.9443653 C369.036253,21.4002127 367.760937,20.1904331 366.216154,20.1904331 L356.76975,20.1904331 L356.736067,19.4160347 C356.610626,16.6528144 356.486347,13.8895941 356.362067,11.1263737 C356.300508,9.74940763 355.126241,8.69520424 353.749875,8.77183136 C340.70285,9.49630593 327.639564,9.67974661 314.583247,9.33956864 C310.020912,9.11200932 288.869005,8.86239068 284.947812,8.50247542 C284.946651,8.50247542 284.945489,8.50247542 284.944328,8.50247542 C283.80839,8.39914492 282.825769,9.36162797 282.761887,10.6410686 C282.750272,10.87095 282.739819,11.0985093 282.728204,11.3295517 C282.664322,12.6124754 283.549378,13.7525941 284.698092,13.8605686 C284.699253,13.8605686 284.700415,13.8605686 284.701576,13.8605686 C288.396278,14.1995856 309.191607,14.4619754 313.490284,14.6848907 C313.490284,14.6860517 313.490284,14.6872127 313.490284,14.6872127 C325.968179,15.0390008 338.454204,14.911289 350.927452,14.297111 C351.820639,38.7957297 352.714986,81.085772 353.609334,105.585552 C353.716191,108.513636 353.821887,111.44056 353.929906,114.368645 C353.768458,114.355874 353.601204,114.343103 353.423496,114.32917 C353.423496,114.347747 353.423496,114.365162 353.423496,114.383738 C348.134067,114.08884 301.147123,111.594975 257.986129,113.214594 C256.425086,113.272645 255.195067,114.560213 255.195067,116.120619 L255.195067,116.413196 C255.195067,118.060679 256.56098,119.371467 258.206812,119.311094 C302.720943,117.656645 351.220148,120.362975 353.811434,120.510425 C356.179713,120.719408 357.518912,120.855247 357.623446,120.866857 C358.952191,120.999213 360.303005,120.511586 360.448191,119.227501 C360.458645,119.143908 360.452837,119.052187 360.436576,118.953501 C360.227508,114.316399 360.007986,109.891764 359.798918,105.245374 C358.876694,84.7580686 357.954471,46.4816619 357.032247,25.9955178 L363.457614,25.9955178 L367.842241,128.845365 C362.190427,128.557433 354.617508,128.159204 353.21675,128.034975 C350.09234,127.859662 321.760098,126.323636 289.290626,126.323636 C276.528166,126.323636 266.542831,126.421162 258.000067,126.698645 C256.433216,126.74973 255.195067,128.033814 255.195067,129.601187" id="Fill-34" fill="#E4E4E4" mask="url(#mask-4)"></path>
                    </g>
                </g>
            </g>
        </g>
    </g>
</svg>