<?xml version="1.0" encoding="UTF-8"?>
<svg width="13px" height="12px" viewBox="0 0 13 12" version="1.1" xmlns="http://www.w3.org/2000/svg" xmlns:xlink="http://www.w3.org/1999/xlink">
    <!-- Generator: Sketch 53.2 (72643) - https://sketchapp.com -->
    <title>close - simple-line-icons</title>
    <desc>Created with Sketch.</desc>
    <g id="Breakpoints" stroke="none" stroke-width="1" fill="none" fill-rule="evenodd">
        <g id="disclaimer" transform="translate(-1415.000000, -14.000000)" fill="#FFFFFF">
            <g transform="translate(-2.000000, 0.000000)" id="close---simple-line-icons">
                <path d="M1429.46579,14.2842105 C1429.65526,14.4736852 1429.75,14.7105249 1429.75,14.9947368 C1429.75,15.2789488 1429.65526,15.5157885 1429.46579,15.7052632 L1425.17105,20 L1429.46579,24.2947368 C1429.65526,24.4842115 1429.75,24.7210512 1429.75,25.0052632 C1429.75,25.2894751 1429.65526,25.5263148 1429.46579,25.7157895 C1429.27631,25.9052641 1429.03948,26 1428.75526,26 C1428.47105,26 1428.23421,25.9052641 1428.04474,25.7157895 L1423.75,21.4210526 L1419.45526,25.7157895 C1419.26579,25.9052641 1419.02895,26 1418.74474,26 C1418.46052,26 1418.22369,25.9052641 1418.03421,25.7157895 C1417.84474,25.5263148 1417.75,25.2894751 1417.75,25.0052632 C1417.75,24.7210512 1417.84474,24.4842115 1418.03421,24.2947368 L1422.32895,20 L1418.03421,15.7052632 C1417.84474,15.5157885 1417.75,15.2789488 1417.75,14.9947368 C1417.75,14.7105249 1417.84474,14.4736852 1418.03421,14.2842105 C1418.22369,14.0947359 1418.46052,14 1418.74474,14 C1419.02895,14 1419.26579,14.0947359 1419.45526,14.2842105 L1423.75,18.5789474 L1428.04474,14.2842105 C1428.23421,14.0947359 1428.47105,14 1428.75526,14 C1429.03948,14 1429.27631,14.0947359 1429.46579,14.2842105 Z"></path>
            </g>
        </g>
    </g>
</svg>