<?xml version="1.0" encoding="UTF-8"?>
<svg width="400px" height="132px" viewBox="0 0 400 132" version="1.1" xmlns="http://www.w3.org/2000/svg" xmlns:xlink="http://www.w3.org/1999/xlink">
    <!-- Generator: Sketch 53.2 (72643) - https://sketchapp.com -->
    <title>Inspection Lockup</title>
    <desc>Created with Sketch.</desc>
    <defs>
        <polygon id="path-1" points="1.03913043 0.509626168 12.1944099 0.509626168 12.1944099 13.0188355 1.03913043 13.0188355"></polygon>
        <polygon id="path-3" points="0 132.490374 399.797516 132.490374 399.797516 1.24299065 0 1.24299065"></polygon>
    </defs>
    <g id="Breakpoints" stroke="none" stroke-width="1" fill="none" fill-rule="evenodd">
        <g id="1024-about-copy-2" transform="translate(-67.000000, -51.000000)">
            <g id="Content">
                <g id="Warranty-Lockup" transform="translate(67.000000, 50.000000)">
                    <g id="Group-34">
                        <g id="Group-3" transform="translate(88.198758, 0.733364)">
                            <mask id="mask-2" fill="white">
                                <use xlink:href="#path-1"></use>
                            </mask>
                            <g id="Clip-2"></g>
                            <path d="M1.03913043,6.79891028 L1.03913043,6.76534953 C1.03913043,3.32599439 3.62919255,0.508134579 7.34223602,0.508134579 C9.62173913,0.508134579 10.9857143,1.27008785 12.1086957,2.37510654 L10.415528,4.32908785 C9.48385093,3.48136822 8.53354037,2.96304112 7.32484472,2.96304112 C5.2863354,2.96304112 3.81925466,4.65599439 3.81925466,6.7293028 L3.81925466,6.76534953 C3.81925466,8.83865794 5.25279503,10.565172 7.32484472,10.565172 C8.70621118,10.565172 9.55341615,10.0132841 10.5024845,9.14940561 L12.1944099,10.8597607 C10.9509317,12.1897607 9.56956522,13.0188355 7.23913043,13.0188355 C3.68136646,13.0188355 1.03913043,10.2718262 1.03913043,6.79891028" id="Fill-1" fill="#FEFEFE" mask="url(#mask-2)"></path>
                        </g>
                        <polygon id="Fill-4" fill="#FEFEFE" points="102.952298 1.4497 112.070311 1.4497 112.070311 3.81635421 105.594534 3.81635421 105.594534 6.27126075 111.292671 6.27126075 111.292671 8.63791495 105.594534 8.63791495 105.594534 11.1785879 112.156025 11.1785879 112.156025 13.5452421 102.952298 13.5452421"></polygon>
                        <path d="M120.309565,7.32469533 C121.605217,7.32469533 122.348075,6.63359252 122.348075,5.61434019 L122.348075,5.57953645 C122.348075,4.43971402 121.553043,3.85177944 120.257391,3.85177944 L117.616398,3.85177944 L117.616398,7.32469533 L120.309565,7.32469533 Z M114.95677,1.4490785 L120.482236,1.4490785 C122.018882,1.4490785 123.211429,1.88163925 124.005217,2.67715327 C124.678509,3.35085421 125.041242,4.30049907 125.041242,5.44156449 L125.041242,5.47636822 C125.041242,7.42910654 123.987826,8.65469533 122.45118,9.22522804 L125.403975,13.5458636 L122.295901,13.5458636 L119.705839,9.67519065 L117.616398,9.67519065 L117.616398,13.5458636 L114.95677,13.5458636 L114.95677,1.4490785 Z" id="Fill-6" fill="#FEFEFE"></path>
                        <polygon id="Fill-8" fill="#FEFEFE" points="130.691553 3.90410935 127.013292 3.90410935 127.013292 1.4492028 137.029441 1.4492028 137.029441 3.90410935 133.35118 3.90410935 133.35118 13.5459879 130.691553 13.5459879"></polygon>
                        <mask id="mask-4" fill="white">
                            <use xlink:href="#path-3"></use>
                        </mask>
                        <g id="Clip-11"></g>
                        <polygon id="Fill-10" fill="#FEFEFE" mask="url(#mask-4)" points="139.62236 13.5448692 142.281988 13.5448692 142.281988 1.4493271 139.62236 1.4493271"></polygon>
                        <polygon id="Fill-12" fill="#FEFEFE" mask="url(#mask-4)" points="145.736646 1.4497 154.940373 1.4497 154.940373 3.8698028 148.396273 3.8698028 148.396273 6.44403645 154.163975 6.44403645 154.163975 8.86289626 148.396273 8.86289626 148.396273 13.5452421 145.736646 13.5452421"></polygon>
                        <polygon id="Fill-13" fill="#FEFEFE" mask="url(#mask-4)" points="157.619876 13.5448692 160.279503 13.5448692 160.279503 1.4493271 157.619876 1.4493271"></polygon>
                        <polygon id="Fill-14" fill="#FEFEFE" mask="url(#mask-4)" points="163.735155 1.4497 172.851925 1.4497 172.851925 3.81635421 166.376149 3.81635421 166.376149 6.27126075 172.075528 6.27126075 172.075528 8.63791495 166.376149 8.63791495 166.376149 11.1785879 172.938882 11.1785879 172.938882 13.5452421 163.735155 13.5452421"></polygon>
                        <path d="M178.398758,3.85190374 L178.398758,11.1432869 L180.453416,11.1432869 C182.629814,11.1432869 184.096894,9.67531495 184.096894,7.53239907 L184.096894,7.49883832 C184.096894,5.35592243 182.629814,3.85190374 180.453416,3.85190374 L178.398758,3.85190374 Z M175.73913,1.4492028 L180.453416,1.4492028 C184.252174,1.4492028 186.878261,4.05948318 186.878261,7.46279159 L186.878261,7.49883832 C186.878261,10.9021467 184.252174,13.5459879 180.453416,13.5459879 L175.73913,13.5459879 L175.73913,1.4492028 Z" id="Fill-15" fill="#FEFEFE" mask="url(#mask-4)"></path>
                        <path d="M200.057764,7.54930374 C201.386957,7.54930374 202.164596,6.75378972 202.164596,5.71713551 L202.164596,5.68357477 C202.164596,4.49154673 201.336025,3.85140654 200.00559,3.85140654 L197.950932,3.85140654 L197.950932,7.54930374 L200.057764,7.54930374 Z M195.291304,1.4499486 L200.230435,1.4499486 C203.113665,1.4499486 204.857764,3.16154673 204.857764,5.63136916 L204.857764,5.6661729 C204.857764,8.46538785 202.682609,9.91595794 199.970807,9.91595794 L197.950932,9.91595794 L197.950932,13.5454907 L195.291304,13.5454907 L195.291304,1.4499486 Z" id="Fill-16" fill="#FEFEFE" mask="url(#mask-4)"></path>
                        <path d="M212.614783,7.32469533 C213.909193,7.32469533 214.65205,6.63359252 214.65205,5.61434019 L214.65205,5.57953645 C214.65205,4.43971402 213.858261,3.85177944 212.562609,3.85177944 L209.920373,3.85177944 L209.920373,7.32469533 L212.614783,7.32469533 Z M207.260745,1.4490785 L212.787453,1.4490785 C214.324099,1.4490785 215.515404,1.88163925 216.310435,2.67715327 C216.983727,3.35085421 217.34646,4.30049907 217.34646,5.44156449 L217.34646,5.47636822 C217.34646,7.42910654 216.293043,8.65469533 214.756398,9.22522804 L217.709193,13.5458636 L214.601118,13.5458636 L212.009814,9.67519065 L209.920373,9.67519065 L209.920373,13.5458636 L207.261988,13.5458636 L207.260745,1.4490785 Z" id="Fill-17" fill="#FEFEFE" mask="url(#mask-4)"></path>
                        <polygon id="Fill-18" fill="#FEFEFE" mask="url(#mask-4)" points="220.181615 1.4497 229.298385 1.4497 229.298385 3.81635421 222.822609 3.81635421 222.822609 6.27126075 228.521988 6.27126075 228.521988 8.63791495 222.822609 8.63791495 222.822609 11.1785879 229.385342 11.1785879 229.385342 13.5452421 220.181615 13.5452421"></polygon>
                        <polygon id="Fill-19" fill="#FEFEFE" mask="url(#mask-4)" points="231.598758 9.44921495 236.91677 9.44921495 236.91677 6.92718692 231.598758 6.92718692"></polygon>
                        <path d="M249.197019,7.53227477 L249.197019,7.49871402 C249.197019,5.42416262 247.676522,3.69640561 245.536149,3.69640561 C243.394534,3.69640561 241.90882,5.38935888 241.90882,7.46266729 L241.90882,7.49871402 C241.90882,9.57202243 243.428075,11.2985364 245.570932,11.2985364 C247.711304,11.2985364 249.197019,9.60558318 249.197019,7.53227477 M239.129938,7.53227477 L239.129938,7.49871402 C239.129938,4.05935888 241.840497,1.24149907 245.570932,1.24149907 C249.300124,1.24149907 251.977143,4.02579813 251.977143,7.46266729 L251.977143,7.49871402 C251.977143,10.9355832 249.265342,13.7522 245.536149,13.7522 C241.805714,13.7522 239.129938,10.9716299 239.129938,7.53227477" id="Fill-20" fill="#FEFEFE" mask="url(#mask-4)"></path>
                        <polygon id="Fill-21" fill="#FEFEFE" mask="url(#mask-4)" points="253.154907 1.4497 256.003354 1.4497 258.508944 9.64100841 261.219503 1.41613925 263.499006 1.41613925 266.209565 9.64100841 268.713913 1.4497 271.494037 1.4497 267.367329 13.6322514 265.053043 13.6322514 262.325093 5.71812991 259.597143 13.6322514 257.281615 13.6322514"></polygon>
                        <polygon id="Fill-22" fill="#FEFEFE" mask="url(#mask-4)" points="273.899876 1.4497 276.35205 1.4497 282.015404 8.8977 282.015404 1.4497 284.640248 1.4497 284.640248 13.5452421 282.378137 13.5452421 276.52472 5.85610187 276.52472 13.5452421 273.899876 13.5452421"></polygon>
                        <polygon id="Fill-23" fill="#FEFEFE" mask="url(#mask-4)" points="287.976894 1.4497 297.093665 1.4497 297.093665 3.81635421 290.617888 3.81635421 290.617888 6.27126075 296.317267 6.27126075 296.317267 8.63791495 290.617888 8.63791495 290.617888 11.1785879 297.180621 11.1785879 297.180621 13.5452421 287.976894 13.5452421"></polygon>
                        <path d="M302.640497,3.85190374 L302.640497,11.1432869 L304.695155,11.1432869 C306.871553,11.1432869 308.338634,9.67531495 308.338634,7.53239907 L308.338634,7.49883832 C308.338634,5.35592243 306.871553,3.85190374 304.695155,3.85190374 L302.640497,3.85190374 Z M299.98087,1.4492028 L304.695155,1.4492028 C308.493913,1.4492028 311.12,4.05948318 311.12,7.46279159 L311.12,7.49883832 C311.12,10.9021467 308.493913,13.5459879 304.695155,13.5459879 L299.98087,13.5459879 L299.98087,1.4492028 Z" id="Fill-24" fill="#FEFEFE" mask="url(#mask-4)"></path>
                        <polygon id="Fill-25" fill="#FEFEFE" mask="url(#mask-4)" points="52.5409938 39.4919262 62.0391304 39.4919262 67.6937888 58.268543 73.9484472 39.3987019 81.6863354 39.3987019 87.942236 58.268543 93.5956522 39.4919262 102.908696 39.4919262 92.0664596 72.1788514 84.2354037 72.1788514 77.7484472 53.4942159 71.2142857 72.1788514 63.384472 72.1788514"></polygon>
                        <path d="M122.558758,59.1043299 L118.943851,49.9236009 L115.284224,59.1043299 L122.558758,59.1043299 Z M114.681739,39.2599841 L123.346335,39.2599841 L137.155031,71.9469093 L127.516522,71.9469093 L125.199752,66.1048533 L112.64323,66.1048533 L110.325217,71.9469093 L100.919006,71.9469093 L114.681739,39.2599841 Z" id="Fill-26" fill="#FEFEFE" mask="url(#mask-4)"></path>
                        <path d="M156.433292,55.0694579 C159.445714,55.0694579 161.251925,53.5865701 161.251925,51.2211589 L161.251925,51.1291776 C161.251925,48.5325701 159.352547,47.2336449 156.387329,47.2336449 L150.455652,47.2336449 L150.455652,55.0694579 L156.433292,55.0694579 Z M141.466832,39.4922991 L156.803478,39.4922991 C161.762484,39.4922991 165.191056,40.7899813 167.368696,42.9689439 C169.269317,44.8694766 170.241988,47.3268692 170.241988,50.5263271 L170.241988,50.6195514 C170.241988,55.6263178 167.600994,58.919 163.569938,60.6343271 L171.307826,71.946785 L160.973665,71.946785 L154.440745,62.117215 L150.455652,62.117215 L150.455652,71.946785 L141.466832,71.946785 L141.466832,39.4922991 Z" id="Fill-27" fill="#FEFEFE" mask="url(#mask-4)"></path>
                        <path d="M190.909689,55.0694579 C193.922112,55.0694579 195.729565,53.5865701 195.729565,51.2211589 L195.729565,51.1291776 C195.729565,48.5325701 193.830186,47.2336449 190.863727,47.2336449 L184.93205,47.2336449 L184.93205,55.0694579 L190.909689,55.0694579 Z M175.94323,39.4922991 L191.281118,39.4922991 C196.238882,39.4922991 199.667453,40.7899813 201.846335,42.9689439 C203.745714,44.8694766 204.718385,47.3268692 204.718385,50.5263271 L204.718385,50.6195514 C204.718385,55.6263178 202.077391,58.919 198.046335,60.6343271 L205.784224,71.946785 L195.451304,71.946785 L188.917143,62.117215 L184.93205,62.117215 L184.93205,71.946785 L175.94323,71.946785 L175.94323,39.4922991 Z" id="Fill-28" fill="#FEFEFE" mask="url(#mask-4)"></path>
                        <path d="M228.90882,59.1030869 L225.295155,49.9223579 L221.634286,59.1030869 L228.90882,59.1030869 Z M221.031801,39.2599841 L229.69764,39.2599841 L243.505093,71.9469093 L233.867826,71.9469093 L231.549814,66.1048533 L218.993292,66.1048533 L216.676522,71.9469093 L207.270311,71.9469093 L221.031801,39.2599841 Z" id="Fill-29" fill="#FEFEFE" mask="url(#mask-4)"></path>
                        <polygon id="Fill-30" fill="#FEFEFE" mask="url(#mask-4)" points="247.817764 39.4908075 256.204099 39.4908075 269.549441 56.6465645 269.549441 39.4908075 278.446335 39.4908075 278.446335 71.9465364 270.61528 71.9465364 256.714658 54.1419383 256.714658 71.9465364 247.817764 71.9465364"></polygon>
                        <polygon id="Fill-31" fill="#FEFEFE" mask="url(#mask-4)" points="293.276398 47.3736056 283.591925 47.3736056 283.591925 39.4905589 311.996894 39.4905589 311.996894 47.3736056 302.265217 47.3736056 302.265217 71.9475308 293.276398 71.9475308"></polygon>
                        <polygon id="Fill-32" fill="#FEFEFE" mask="url(#mask-4)" points="326.501366 59.7985402 314.129938 39.4905589 324.369689 39.4905589 331.042981 51.313886 337.760994 39.4905589 347.815652 39.4905589 335.490186 59.6605682 335.490186 71.9462879 326.501366 71.9462879"></polygon>
                        <path d="M377.772174,113.404998 C374.431801,113.217307 344.128696,111.571587 309.401988,111.571587 C269.994534,111.571587 255.354783,112.449138 231.079006,116.270092 C231.024348,116.278793 230.970932,116.287493 230.917516,116.299923 L215.321242,119.605036 C213.173416,120.061213 211.393292,121.455849 210.562236,123.330279 C210.015652,124.565811 206.005714,126.274923 199.900124,126.274923 C193.793292,126.274923 189.784596,124.565811 189.23677,123.330279 C188.405714,121.455849 186.626832,120.061213 184.476522,119.605036 L168.881491,116.299923 C168.828075,116.287493 168.774658,116.278793 168.72,116.270092 C144.445466,112.449138 129.804472,111.571587 90.3970186,111.571587 C55.6703106,111.571587 25.367205,113.217307 21.9249689,113.412456 C20.5100621,113.537998 12.4255901,113.963101 6.38459627,114.271363 L11.0752795,23.2086243 L17.946087,23.2086243 C16.9585093,45.1399514 15.9721739,67.0725215 14.9870807,89.0050916 C14.7634783,93.9795402 14.5286957,98.7178206 14.3050932,103.682325 C14.2877019,103.786736 14.2814907,103.886176 14.2914286,103.974428 C14.4479503,105.350419 15.8926708,105.871232 17.3137888,105.729531 C17.4255901,105.717101 18.8578882,105.571671 21.3908075,105.349176 C25.3696894,105.121708 130.502609,99.2510636 178.994534,109.643708 C178.994534,109.643708 192.219379,111.245923 197.640497,116.748643 C197.640497,116.748643 198.84795,117.682129 199.900124,117.531727 C200.951056,117.682129 202.158509,116.748643 202.158509,116.748643 C207.579627,111.245923 220.804472,109.643708 220.804472,109.643708 C269.296398,99.2510636 374.429317,105.121708 378.408199,105.349176 C380.941118,105.571671 382.373416,105.717101 382.485217,105.729531 C383.906335,105.871232 385.351056,105.350419 385.507578,103.974428 C385.517516,103.886176 385.511304,103.786736 385.493913,103.682325 C385.270311,98.7178206 385.035528,93.9795402 384.811925,89.0050916 C383.82559,67.0725215 382.839255,45.1399514 381.852919,23.2086243 L388.724969,23.2086243 L393.41441,114.271363 C387.369689,113.963101 379.271553,113.536755 377.772174,113.404998 L377.772174,113.404998 Z M394.775901,19.9408019 C394.691429,18.2888673 393.327453,16.993671 391.67528,16.993671 L381.573416,16.993671 L381.536149,16.1645963 C381.401988,13.2050355 381.269068,10.2467178 381.136149,7.2884 C381.070311,5.81421308 379.815652,4.68557757 378.34236,4.76761495 C364.388323,5.54324112 350.416894,5.74087664 336.452919,5.37543738 C331.573416,5.13181121 326.677764,4.86456822 321.801988,4.47924112 L321.798261,4.47924112 C320.385839,4.36861495 319.163478,5.39781121 319.085217,6.76882991 C319.070311,7.01494206 319.056646,7.25856822 319.042981,7.50592336 C318.963478,8.87942804 320.062857,10.1000449 321.491429,10.2144 C321.492671,10.2144 321.493913,10.2144 321.496398,10.215643 C326.090186,10.5773533 330.68646,10.8595121 335.283975,11.0981664 L335.283975,11.1006523 C348.629317,11.4772785 361.983354,11.3417925 375.322484,10.6817645 C376.279006,36.9113533 377.235528,63.1409421 378.190807,89.3705308 C378.306335,92.5053533 378.419379,95.6389327 378.533665,98.7737551 C378.360994,98.7600822 378.183354,98.7464093 377.993292,98.7302505 L377.993292,98.788671 C369.806957,98.3337364 268.224348,92.945372 220.804472,103.106821 C220.804472,103.106821 207.579627,104.710279 202.158509,110.214241 C202.158509,110.214241 200.951056,111.147727 199.900124,110.996082 C198.84795,111.147727 197.640497,110.214241 197.640497,110.214241 C192.219379,104.710279 178.994534,103.106821 178.994534,103.106821 C131.574658,92.945372 29.9908075,98.3337364 21.8057143,98.788671 C21.8057143,98.7700262 21.8057143,98.7501383 21.8057143,98.7302505 C21.6144099,98.7451664 21.4367702,98.7600822 21.2640994,98.7737551 C21.3796273,95.6389327 21.4926708,92.5053533 21.6069565,89.3705308 C22.5634783,63.1409421 23.5187578,36.9113533 24.4752795,10.6817645 C37.8144099,11.3405495 51.1684472,11.4772785 64.5150311,11.1006523 C64.5137888,11.0994093 64.5137888,11.0981664 64.5137888,11.0981664 C69.1113043,10.8595121 73.7088199,10.5773533 78.3026087,10.215643 C78.3038509,10.2144 78.3050932,10.2144 78.3063354,10.2144 C79.7349068,10.1000449 80.8342857,8.87942804 80.7560248,7.50592336 C80.741118,7.25856822 80.7274534,7.01494206 80.7125466,6.76882991 C80.6342857,5.39781121 79.4119255,4.36861495 77.9995031,4.47924112 L77.9957764,4.47924112 C73.12,4.86456822 68.2243478,5.13181121 63.3448447,5.37543738 C49.3821118,5.74087664 35.409441,5.54324112 21.4554037,4.76761495 C19.9821118,4.68557757 18.7274534,5.81421308 18.6616149,7.2884 C18.5286957,10.2467178 18.3957764,13.2050355 18.2628571,16.1645963 L18.2243478,16.993671 L8.12496894,16.993671 C6.47279503,16.993671 5.10881988,18.2888673 5.02434783,19.9408019 L0.00447204969,117.38754 C-0.0414906832,118.265092 0.287701863,119.121512 0.908819876,119.74425 C1.52869565,120.366989 2.38956522,120.705082 3.26037267,120.651634 C3.95229814,120.61683 20.2193789,119.802671 22.3746584,119.610007 C25.6976398,119.423559 55.8392547,117.78654 90.3970186,117.78654 C129.36472,117.78654 143.839255,118.649176 167.67528,122.39555 L183.187081,125.684503 C183.405714,125.730493 183.541118,125.829933 183.559752,125.851064 C186.290186,132.012568 196.757267,132.489877 199.900124,132.489877 C203.041739,132.489877 213.50882,132.012568 216.230559,125.868465 C216.25913,125.829933 216.394534,125.730493 216.610683,125.684503 L232.122484,122.396793 C255.962236,118.649176 270.431801,117.78654 309.401988,117.78654 C343.959752,117.78654 374.101366,119.423559 377.322484,119.60255 C379.579627,119.802671 395.846708,120.61683 396.537391,120.651634 C397.410683,120.703839 398.270311,120.366989 398.890186,119.74425 C399.511304,119.121512 399.839255,118.265092 399.794534,117.38754 L394.775901,19.9408019 Z" id="Fill-33" fill="#E4E4E4" mask="url(#mask-4)"></path>
                    </g>
                </g>
            </g>
        </g>
    </g>
</svg>