<?xml version="1.0" encoding="UTF-8"?>
<svg width="34px" height="34px" viewBox="0 0 34 34" version="1.1" xmlns="http://www.w3.org/2000/svg" xmlns:xlink="http://www.w3.org/1999/xlink">
    <!-- Generator: Sketch 53.2 (72643) - https://sketchapp.com -->
    <title>close - simple-line-icons</title>
    <desc>Created with Sketch.</desc>
    <g id="Breakpoints" stroke="none" stroke-width="1" fill="none" fill-rule="evenodd">
        <g id="Story-Time-1440px-Full-Screen-Modal" transform="translate(-1367.000000, -15.000000)" fill="#FFFFFF">
            <g id="video" transform="translate(0.000000, -1.000000)">
                <path d="M1399.95066,16.7993421 C1400.48356,17.3322395 1400.75,17.9983513 1400.75,18.7976974 C1400.75,19.5970435 1400.48356,20.2631552 1399.95066,20.7960526 L1387.87171,32.875 L1399.95066,44.9539474 C1400.48356,45.4868448 1400.75,46.1529565 1400.75,46.9523026 C1400.75,47.7516487 1400.48356,48.4177605 1399.95066,48.9506579 C1399.41776,49.4835553 1398.75165,49.75 1397.9523,49.75 C1397.15296,49.75 1396.48684,49.4835553 1395.95395,48.9506579 L1383.875,36.8717105 L1371.79605,48.9506579 C1371.26316,49.4835553 1370.59704,49.75 1369.7977,49.75 C1368.99835,49.75 1368.33224,49.4835553 1367.79934,48.9506579 C1367.26644,48.4177605 1367,47.7516487 1367,46.9523026 C1367,46.1529565 1367.26644,45.4868448 1367.79934,44.9539474 L1379.87829,32.875 L1367.79934,20.7960526 C1367.26644,20.2631552 1367,19.5970435 1367,18.7976974 C1367,17.9983513 1367.26644,17.3322395 1367.79934,16.7993421 C1368.33224,16.2664447 1368.99835,16 1369.7977,16 C1370.59704,16 1371.26316,16.2664447 1371.79605,16.7993421 L1383.875,28.8782895 L1395.95395,16.7993421 C1396.48684,16.2664447 1397.15296,16 1397.9523,16 C1398.75165,16 1399.41776,16.2664447 1399.95066,16.7993421 Z" id="close---simple-line-icons"></path>
            </g>
        </g>
    </g>
</svg>