<?xml version="1.0" encoding="UTF-8"?>
<svg width="400px" height="151px" viewBox="0 0 400 151" version="1.1" xmlns="http://www.w3.org/2000/svg" xmlns:xlink="http://www.w3.org/1999/xlink">
    <!-- Generator: Sketch 53.2 (72643) - https://sketchapp.com -->
    <title>Roadside Assistance Lockup</title>
    <desc>Created with Sketch.</desc>
    <defs>
        <polygon id="path-1" points="0.709565217 0.478991803 12.087205 0.478991803 12.087205 13.1834139 0.709565217 13.1834139"></polygon>
        <polygon id="path-3" points="0 151.758713 399.797516 151.758713 399.797516 1.23770492 0 1.23770492"></polygon>
    </defs>
    <g id="Breakpoints" stroke="none" stroke-width="1" fill="none" fill-rule="evenodd">
        <g id="1024-about-copy-3" transform="translate(-67.000000, -51.000000)">
            <g id="Content">
                <g id="Exchange-Policy-Lockup" transform="translate(67.000000, 50.000000)">
                    <g id="Group-40">
                        <g id="Group-3" transform="translate(86.956522, 0.758713)">
                            <mask id="mask-2" fill="white">
                                <use xlink:href="#path-1"></use>
                            </mask>
                            <g id="Clip-2"></g>
                            <path d="M0.709565217,6.86616803 L0.709565217,6.8315123 C0.709565217,3.33870902 3.35180124,0.478372951 7.13813665,0.478372951 C9.46360248,0.478372951 10.8549068,1.25070082 11.9990062,2.37453689 L10.2735404,4.35734016 C9.32198758,3.49713525 8.35304348,2.97111066 7.12074534,2.97111066 C5.04248447,2.97111066 3.54559006,4.69028279 3.54559006,6.79561885 L3.54559006,6.8315123 C3.54559006,8.93684836 5.00645963,10.6919139 7.12074534,10.6919139 C8.52944099,10.6919139 9.39279503,10.1299959 10.3617391,9.25246311 L12.087205,10.9902008 C10.8201242,12.3417746 9.41018634,13.1834139 7.03254658,13.1834139 C3.40397516,13.1834139 0.709565217,10.393627 0.709565217,6.86616803" id="Fill-1" fill="#FEFEFE" mask="url(#mask-2)"></path>
                        </g>
                        <polygon id="Fill-4" fill="#FEFEFE" points="101.653913 1.44786721 110.953292 1.44786721 110.953292 3.85149016 104.348323 3.85149016 104.348323 6.34422787 110.160745 6.34422787 110.160745 8.74785082 104.348323 8.74785082 104.348323 11.3272279 111.041491 11.3272279 111.041491 13.7320885 101.653913 13.7320885"></polygon>
                        <path d="M119.35764,7.41459508 C120.678137,7.41459508 121.435901,6.71281639 121.435901,5.67685738 L121.435901,5.64220164 C121.435901,4.48370984 120.625963,3.88713607 119.305466,3.88713607 L116.609814,3.88713607 L116.609814,7.41459508 L119.35764,7.41459508 Z M113.898012,1.44761967 L119.534037,1.44761967 C121.101739,1.44761967 122.316646,1.88700492 123.126584,2.69398852 C123.81354,3.37843934 124.183727,4.34384918 124.183727,5.50234098 L124.183727,5.53699672 C124.183727,7.5198 123.109193,8.76616885 121.541491,9.34541475 L124.553913,13.731841 L121.382484,13.731841 L118.741491,9.80089016 L116.609814,9.80089016 L116.609814,13.731841 L113.898012,13.731841 L113.898012,1.44761967 Z" id="Fill-6" fill="#FEFEFE"></path>
                        <polygon id="Fill-8" fill="#FEFEFE" points="129.946335 3.94023361 126.19354 3.94023361 126.19354 1.4474959 136.409689 1.4474959 136.409689 3.94023361 132.658137 3.94023361 132.658137 13.7317172 129.946335 13.7317172"></polygon>
                        <mask id="mask-4" fill="white">
                            <use xlink:href="#path-3"></use>
                        </mask>
                        <g id="Clip-11"></g>
                        <polygon id="Fill-10" fill="#FEFEFE" mask="url(#mask-4)" points="139.054658 13.7323361 141.767702 13.7323361 141.767702 1.44811475 139.054658 1.44811475"></polygon>
                        <polygon id="Fill-12" fill="#FEFEFE" mask="url(#mask-4)" points="145.29118 1.44786721 154.678758 1.44786721 154.678758 3.90471148 148.002981 3.90471148 148.002981 6.51998197 153.886211 6.51998197 153.886211 8.97682623 148.002981 8.97682623 148.004224 13.7320885 145.29118 13.7320885"></polygon>
                        <polygon id="Fill-13" fill="#FEFEFE" mask="url(#mask-4)" points="157.41205 1.44786721 160.123851 1.44786721 160.125093 13.7320885 157.41205 13.7320885"></polygon>
                        <polygon id="Fill-14" fill="#FEFEFE" mask="url(#mask-4)" points="163.648696 1.44786721 172.948075 1.44786721 172.948075 3.85149016 166.343106 3.85149016 166.343106 6.34422787 172.155528 6.34422787 172.155528 8.74785082 166.343106 8.74785082 166.343106 11.3272279 173.036273 11.3272279 173.036273 13.7320885 163.648696 13.7320885"></polygon>
                        <path d="M178.604099,3.8870123 L178.604099,11.2922008 L180.699752,11.2922008 C182.919627,11.2922008 184.416522,9.80076639 184.416522,7.62611885 L184.416522,7.59022541 C184.416522,5.41434016 182.919627,3.8870123 180.699752,3.8870123 L178.604099,3.8870123 Z M175.892298,1.4474959 L180.699752,1.4474959 C184.575528,1.4474959 187.252547,4.09742213 187.252547,7.55433197 L187.252547,7.59022541 C187.252547,11.0471352 184.575528,13.7317172 180.699752,13.7317172 L175.892298,13.7317172 L175.892298,1.4474959 Z" id="Fill-15" fill="#FEFEFE" mask="url(#mask-4)"></path>
                        <path d="M200.695031,7.64307541 C202.051553,7.64307541 202.844099,6.8360918 202.844099,5.78280492 L202.844099,5.74691148 C202.844099,4.53643607 201.999379,3.88664098 200.642857,3.88664098 L198.547205,3.88664098 L198.547205,7.64307541 L200.695031,7.64307541 Z M195.834161,1.4483623 L200.871429,1.4483623 C203.813043,1.4483623 205.591925,3.1848623 205.591925,5.69492787 L205.591925,5.72958361 C205.591925,8.5725918 203.37205,10.0466984 200.606832,10.0466984 L198.547205,10.0466984 L198.547205,13.7313459 L195.834161,13.7313459 L195.834161,1.4483623 Z" id="Fill-16" fill="#FEFEFE" mask="url(#mask-4)"></path>
                        <path d="M213.502484,7.41459508 C214.822981,7.41459508 215.580745,6.71281639 215.580745,5.67685738 L215.580745,5.64220164 C215.580745,4.48370984 214.770807,3.88713607 213.450311,3.88713607 L210.754658,3.88713607 L210.754658,7.41459508 L213.502484,7.41459508 Z M208.042857,1.44761967 L213.678882,1.44761967 C215.246584,1.44761967 216.461491,1.88700492 217.271429,2.69398852 C217.958385,3.37843934 218.328571,4.34384918 218.328571,5.50234098 L218.328571,5.53699672 C218.328571,7.5198 217.254037,8.76616885 215.686335,9.34541475 L218.698758,13.731841 L215.528571,13.731841 L212.886335,9.80089016 L210.754658,9.80089016 L210.754658,13.731841 L208.042857,13.731841 L208.042857,1.44761967 Z" id="Fill-17" fill="#FEFEFE" mask="url(#mask-4)"></path>
                        <polygon id="Fill-18" fill="#FEFEFE" mask="url(#mask-4)" points="221.220373 1.44786721 230.519752 1.44786721 230.519752 3.85149016 223.914783 3.85149016 223.914783 6.34422787 229.727205 6.34422787 229.727205 8.74785082 223.914783 8.74785082 223.914783 11.3272279 230.60795 11.3272279 230.60795 13.7320885 221.220373 13.7320885"></polygon>
                        <polygon id="Fill-19" fill="#FEFEFE" mask="url(#mask-4)" points="232.864596 9.57240984 238.289441 9.57240984 238.289441 7.01036066 232.864596 7.01036066"></polygon>
                        <path d="M250.814534,7.6255 L250.814534,7.59084426 C250.814534,5.48427049 249.264224,3.72920492 247.080373,3.72920492 C244.896522,3.72920492 243.382236,5.44961475 243.382236,7.55495082 L243.382236,7.59084426 C243.382236,9.69618033 244.931304,11.4500082 247.115155,11.4500082 C249.299006,11.4500082 250.814534,9.73083607 250.814534,7.6255 M240.546211,7.6255 L240.546211,7.59084426 C240.546211,4.09804098 243.311429,1.23770492 247.115155,1.23770492 C250.920124,1.23770492 253.650559,4.06338525 253.650559,7.55495082 L253.650559,7.59084426 C253.650559,11.0824098 250.885342,13.9427459 247.080373,13.9427459 C243.276646,13.9427459 240.546211,11.1170656 240.546211,7.6255" id="Fill-20" fill="#FEFEFE" mask="url(#mask-4)"></path>
                        <polygon id="Fill-21" fill="#FEFEFE" mask="url(#mask-4)" points="254.85118 1.44786721 257.75677 1.44786721 260.31205 9.76648197 263.077267 1.41321148 265.401491 1.41321148 268.166708 9.76648197 270.720745 1.44786721 273.55677 1.44786721 269.346832 13.8199656 266.986584 13.8199656 264.203975 5.78230984 261.421366 13.8199656 259.061118 13.8199656"></polygon>
                        <polygon id="Fill-22" fill="#FEFEFE" mask="url(#mask-4)" points="276.009814 1.44786721 278.510435 1.44786721 284.288075 9.01148197 284.288075 1.44786721 286.965093 1.44786721 286.965093 13.7320885 284.657019 13.7320885 278.686832 5.92217049 278.686832 13.7320885 276.009814 13.7320885"></polygon>
                        <polygon id="Fill-23" fill="#FEFEFE" mask="url(#mask-4)" points="290.367081 1.44786721 299.66646 1.44786721 299.66646 3.85149016 293.061491 3.85149016 293.061491 6.34422787 298.873913 6.34422787 298.873913 8.74785082 293.061491 8.74785082 293.061491 11.3272279 299.754658 11.3272279 299.754658 13.7320885 290.367081 13.7320885"></polygon>
                        <path d="M305.322981,3.8870123 L305.322981,11.2922008 L307.418634,11.2922008 C309.638509,11.2922008 311.135404,9.80076639 311.135404,7.62611885 L311.135404,7.59022541 C311.135404,5.41434016 309.638509,3.8870123 307.418634,3.8870123 L305.322981,3.8870123 Z M302.61118,1.4474959 L307.418634,1.4474959 C311.29441,1.4474959 313.971429,4.09742213 313.971429,7.55556967 L313.971429,7.59022541 C313.971429,11.0471352 311.29441,13.7317172 307.418634,13.7317172 L302.61118,13.7317172 L302.61118,1.4474959 Z" id="Fill-24" fill="#FEFEFE" mask="url(#mask-4)"></path>
                        <polygon id="Fill-25" fill="#FEFEFE" mask="url(#mask-4)" points="49.7875776 31.7003459 76.178882 31.7003459 76.178882 39.3592639 58.7875776 39.3592639 58.7875776 44.3571164 74.5378882 44.3571164 74.5378882 51.5036246 58.7875776 51.5036246 58.7875776 56.6871328 76.4136646 56.6871328 76.4136646 64.3943213 49.7875776 64.3943213"></polygon>
                        <polygon id="Fill-26" fill="#FEFEFE" mask="url(#mask-4)" points="116.209565 31.7003459 105.428199 47.6271328 116.677888 64.3943213 106.224472 64.3943213 99.9437267 54.492682 93.6157764 64.3943213 83.3959006 64.3943213 94.6468323 47.7669934 83.8654658 31.7003459 94.318882 31.7003459 100.084099 40.9014443 105.990932 31.7003459"></polygon>
                        <path d="M121.223975,48.140409 L121.223975,48.0475811 C121.223975,38.5197287 128.537019,31.0464664 138.473665,31.0464664 C145.178012,31.0464664 149.489814,33.8486303 152.396646,37.8191877 L145.551925,43.0967615 C143.677391,40.8082451 141.52087,39.2673025 138.380497,39.2673025 C133.786708,39.2673025 130.551925,43.1895893 130.551925,47.9535156 L130.551925,48.0475811 C130.551925,52.951368 133.786708,56.780827 138.380497,56.780827 C141.801615,56.780827 143.817764,55.1928516 145.786708,52.8102697 L152.630186,57.6682615 C149.537019,61.9185402 145.36559,65.0474582 138.145714,65.0474582 C128.770559,65.0474582 121.223975,57.9021877 121.223975,48.140409" id="Fill-27" fill="#FEFEFE" mask="url(#mask-4)"></path>
                        <polygon id="Fill-28" fill="#FEFEFE" mask="url(#mask-4)" points="161.252795 31.7003459 170.347205 31.7003459 170.347205 43.9375344 182.019255 43.9375344 182.019255 31.7003459 191.113665 31.7003459 191.113665 64.3943213 182.019255 64.3943213 182.019255 51.9702393 170.347205 51.9702393 170.347205 64.3943213 161.252795 64.3943213"></polygon>
                        <path d="M220.92323,51.456468 L217.267329,42.2083369 L213.564224,51.456468 L220.92323,51.456468 Z M212.954286,31.4675336 L221.720745,31.4675336 L235.689689,64.3941975 L225.939379,64.3941975 L223.59528,58.5089107 L210.892174,58.5089107 L208.548075,64.3941975 L199.032547,64.3941975 L212.954286,31.4675336 Z" id="Fill-29" fill="#FEFEFE" mask="url(#mask-4)"></path>
                        <polygon id="Fill-30" fill="#FEFEFE" mask="url(#mask-4)" points="243.562484 31.7003459 252.046957 31.7003459 265.547578 48.981182 265.547578 31.7003459 274.547578 31.7003459 274.547578 64.3943213 266.625839 64.3943213 252.562484 46.4587393 252.562484 64.3943213 243.562484 64.3943213"></polygon>
                        <path d="M283.967205,48.140409 L283.967205,48.0475811 C283.967205,38.5197287 291.467826,31.0464664 301.59205,31.0464664 C307.358509,31.0464664 311.43677,32.7743025 314.905093,35.7633598 L309.562236,42.209327 C307.216894,40.2475648 304.921242,39.1262041 301.639255,39.1262041 C296.905093,39.1262041 293.249193,43.0497287 293.249193,48.0475811 L293.249193,48.140409 C293.249193,53.4650156 296.952298,57.2474418 302.154783,57.2474418 C304.405714,57.2474418 306.092671,56.780827 307.405714,55.8933926 L307.405714,51.924073 L300.983354,51.924073 L300.983354,45.2912123 L316.030559,45.2912123 L316.030559,59.9567779 C312.562236,62.8530074 307.779627,65.0474582 301.779627,65.0474582 C291.560994,65.0474582 283.967205,58.0420484 283.967205,48.140409" id="Fill-31" fill="#FEFEFE" mask="url(#mask-4)"></path>
                        <polygon id="Fill-32" fill="#FEFEFE" mask="url(#mask-4)" points="325.777516 31.7003459 352.16882 31.7003459 352.16882 39.3592639 334.777516 39.3592639 334.777516 44.3571164 350.527826 44.3571164 350.527826 51.5036246 334.777516 51.5036246 334.777516 56.6871328 352.403602 56.6871328 352.403602 64.3943213 325.777516 64.3943213"></polygon>
                        <path d="M141.494037,88.0333713 C143.674161,88.0333713 145.051801,86.8513631 145.051801,85.0950598 L145.051801,85.0319369 C145.051801,83.114732 143.674161,82.1258057 141.462981,82.1258057 L138.513913,82.1258057 L138.513913,88.0333713 L141.494037,88.0333713 Z M132.29528,76.9200189 L141.942484,76.9200189 C147.58472,76.9200189 151.239379,79.82615 151.239379,84.7435516 L151.239379,84.8079123 C151.239379,90.1090025 147.167329,92.88765 141.62323,92.88765 L138.513913,92.88765 L138.513913,99.2754451 L132.29528,99.2754451 L132.29528,76.9200189 Z" id="Fill-33" fill="#FEFEFE" mask="url(#mask-4)"></path>
                        <path d="M174.122236,88.1609787 L174.122236,88.0978557 C174.122236,84.8402164 171.815404,82.0615689 168.38559,82.0615689 C164.955776,82.0615689 162.68,84.8080361 162.68,88.0334951 L162.68,88.0978557 C162.68,91.3233148 165.020373,94.1329049 168.450186,94.1329049 C171.84646,94.1329049 174.122236,91.3864377 174.122236,88.1609787 M156.333416,88.1609787 L156.333416,88.0978557 C156.333416,81.6778803 161.525963,76.4733311 168.450186,76.4733311 C175.373168,76.4733311 180.501118,81.6135197 180.501118,88.0334951 L180.501118,88.0978557 C180.501118,94.5165934 175.308571,99.7223803 168.38559,99.7223803 C161.462609,99.7223803 156.333416,94.5809541 156.333416,88.1609787" id="Fill-34" fill="#FEFEFE" mask="url(#mask-4)"></path>
                        <polygon id="Fill-35" fill="#FEFEFE" mask="url(#mask-4)" points="186.909689 76.9194 193.128323 76.9194 193.128323 93.8462525 203.994161 93.8462525 203.994161 99.2748262 186.909689 99.2748262"></polygon>
                        <polygon id="Fill-36" fill="#FEFEFE" mask="url(#mask-4)" points="210.050932 99.2750738 216.268323 99.2750738 216.268323 76.9196475 210.050932 76.9196475"></polygon>
                        <path d="M222.838634,88.1609787 L222.838634,88.0978557 C222.838634,81.582577 227.838634,76.4733311 234.633665,76.4733311 C239.218758,76.4733311 242.167826,78.3880607 244.154161,81.1035852 L239.474658,84.7114951 C238.191429,83.1470361 236.718137,82.0937492 234.570311,82.0937492 C231.428696,82.0937492 229.217516,84.7758557 229.217516,88.0334951 L229.217516,88.0978557 C229.217516,91.4507984 231.428696,94.0685443 234.570311,94.0685443 C236.909441,94.0685443 238.289565,92.983077 239.634907,91.3554951 L244.31441,94.6762574 C242.198882,97.5823885 239.345466,99.7223803 234.40882,99.7223803 C227.998882,99.7223803 222.838634,94.8359213 222.838634,88.1609787" id="Fill-37" fill="#FEFEFE" mask="url(#mask-4)"></path>
                        <polygon id="Fill-38" fill="#FEFEFE" mask="url(#mask-4)" points="256.077019 90.9076934 247.518012 76.9191525 254.602484 76.9191525 259.217391 85.0632508 263.867081 76.9191525 270.821118 76.9191525 262.295652 90.8111525 262.295652 99.2745787 256.077019 99.2745787"></polygon>
                        <path d="M377.771801,132.75462 C374.431429,132.567727 344.128323,130.929006 309.401615,130.929006 C269.994161,130.929006 255.35441,131.802825 231.078634,135.60753 C231.023975,135.616194 230.970559,135.624858 230.917143,135.637235 L215.32087,138.928293 C213.173043,139.38253 211.392919,140.771235 210.561863,142.637694 C210.01528,143.867973 206.005342,145.569817 199.899752,145.569817 C193.792919,145.569817 189.784224,143.867973 189.236398,142.637694 C188.405342,140.771235 186.62646,139.38253 184.476149,138.928293 L168.881118,135.637235 C168.827702,135.624858 168.774286,135.616194 168.719627,135.60753 C144.445093,131.802825 129.804099,130.929006 90.396646,130.929006 C55.6699379,130.929006 25.3668323,132.567727 21.9245963,132.762047 C20.5096894,132.887055 12.4252174,133.31035 6.3842236,133.617301 L11.0749068,23.9752107 L17.9457143,23.9752107 C16.9593789,45.8145139 15.9730435,86.6191697 14.9867081,108.459711 C14.7631056,113.411768 14.528323,118.129899 14.3047205,123.072055 C14.2873292,123.17726 14.281118,123.275039 14.2910559,123.364153 C14.4475776,124.734293 15.8922981,125.254129 17.3134161,125.111793 C17.4252174,125.099416 18.8575155,124.955842 21.3904348,124.733055 C25.3693168,124.505317 130.502236,118.660875 178.994161,129.009325 C178.994161,129.009325 192.219006,130.604727 197.640124,136.085284 C197.640124,136.085284 198.847578,137.013563 199.899752,136.863801 C200.950683,137.013563 202.158137,136.085284 202.158137,136.085284 C207.579255,130.604727 220.804099,129.009325 220.804099,129.009325 C269.296025,118.660875 374.430186,124.506555 378.407826,124.733055 C380.940745,124.955842 382.373043,125.099416 382.484845,125.111793 C383.905963,125.254129 385.350683,124.734293 385.507205,123.364153 C385.517143,123.275039 385.510932,123.17726 385.49354,123.073293 C385.269938,118.129899 385.035155,113.411768 384.811553,108.459711 C383.825217,86.6191697 382.838882,45.8145139 381.852547,23.9752107 L388.724596,23.9752107 L393.414037,133.617301 C387.369317,133.31035 379.27118,132.885817 377.771801,132.75462 L377.771801,132.75462 Z M394.775528,20.7212844 C394.691056,19.0763746 393.327081,17.7866861 391.674907,17.7866861 L381.573043,17.7866861 L381.535776,16.9611369 C381.401615,14.0141615 381.268696,11.0696615 381.135776,8.12268607 C381.069938,6.65600574 379.81528,5.53216967 378.341988,5.61262049 C364.389193,6.38494836 350.416522,6.58174344 336.452547,6.2190959 C331.573043,5.97526803 329.087329,5.70916148 324.119627,5.32671066 C324.118385,5.32671066 324.115901,5.32671066 324.114658,5.32547295 C322.674907,5.21655492 321.430186,6.24137459 321.350683,7.60532541 C321.334534,7.85039098 321.322112,8.09421885 321.307205,8.33928443 C321.22646,9.70694836 322.346957,10.9223746 323.802857,11.0374811 C323.804099,11.0374811 323.805342,11.0374811 323.806584,11.0387189 C328.488571,11.398891 330.686087,11.6786123 335.283602,11.9174893 C335.283602,11.9174893 335.283602,11.918727 335.283602,11.9199648 C348.630186,12.2949893 361.984224,12.1588418 375.323354,11.5028582 C376.278634,37.6209074 377.235155,82.704309 378.191677,108.822358 C378.305963,111.94385 378.419006,115.064104 378.534534,118.184358 C378.361863,118.170743 378.184224,118.158366 377.992919,118.143514 C377.992919,118.16208 377.992919,118.181883 377.992919,118.200448 C369.807826,117.747448 268.223975,112.383235 220.804099,122.500235 C220.804099,122.500235 207.579255,124.096875 202.158137,129.577432 C202.158137,129.577432 200.950683,130.506948 199.899752,130.355948 C198.847578,130.506948 197.640124,129.577432 197.640124,129.577432 C192.219006,124.096875 178.994161,122.500235 178.994161,122.500235 C131.574286,112.383235 29.991677,117.747448 21.8053416,118.200448 L21.8053416,118.143514 C21.6152795,118.158366 21.4376398,118.170743 21.2649689,118.184358 C21.3792547,115.064104 21.4922981,111.94385 21.6078261,108.822358 C22.5631056,82.704309 23.5196273,37.6209074 24.4749068,11.5028582 C37.8140373,12.1576041 51.1680745,12.2949893 64.5146584,11.9199648 L64.5146584,11.9174893 C69.1109317,11.6786123 71.3096894,11.398891 75.9904348,11.0387189 C75.991677,11.0374811 75.9941615,11.0374811 75.9954037,11.0374811 C77.4513043,10.9223746 78.5718012,9.70694836 78.4910559,8.33928443 C78.4761491,8.09421885 78.4624845,7.85039098 78.4475776,7.60532541 C78.3680745,6.24137459 77.1221118,5.21655492 75.6823602,5.32547295 C75.681118,5.32671066 75.6798758,5.32671066 75.6786335,5.32547295 C70.7096894,5.70916148 68.2239752,5.97526803 63.344472,6.2178582 C49.3817391,6.58174344 35.4090683,6.38494836 21.4550311,5.61262049 C19.9829814,5.53093197 18.728323,6.65600574 18.6624845,8.12268607 C18.528323,11.0696615 18.3954037,14.0141615 18.2624845,16.9611369 L18.2252174,17.7866861 L8.12459627,17.7866861 C6.47242236,17.7866861 5.1084472,19.0763746 5.02397516,20.7212844 L0.00409937888,136.720227 C-0.041863354,137.594047 0.287329193,138.446825 0.908447205,139.066916 C1.52832298,139.687006 2.38919255,140.023661 3.26,139.97044 C3.95192547,139.935784 20.2190062,139.125088 22.3742857,138.933243 C25.6972671,138.747588 55.838882,137.11753 90.396646,137.11753 C129.364348,137.11753 143.838882,137.976498 167.674907,141.70694 L183.186708,144.981907 C183.405342,145.027702 183.540745,145.126719 183.559379,145.14776 C186.289814,151.283063 196.756894,151.758342 199.899752,151.758342 C203.041366,151.758342 213.508447,151.283063 216.230186,145.165088 C216.258758,145.126719 216.394161,145.027702 216.610311,144.981907 L232.122112,141.708178 C255.961863,137.976498 270.431429,137.11753 309.401615,137.11753 C343.959379,137.11753 374.100994,138.747588 377.322112,138.925817 C379.579255,139.125088 395.846335,139.935784 396.537019,139.97044 C397.410311,140.022424 398.269938,139.687006 398.889814,139.066916 C399.510932,138.446825 399.838882,137.594047 399.794161,136.720227 L394.775528,20.7212844 Z" id="Fill-39" fill="#E4E4E4" mask="url(#mask-4)"></path>
                    </g>
                </g>
            </g>
        </g>
    </g>
</svg>