<?xml version="1.0" encoding="UTF-8"?>
<svg width="400px" height="151px" viewBox="0 0 400 151" version="1.1" xmlns="http://www.w3.org/2000/svg" xmlns:xlink="http://www.w3.org/1999/xlink">
    <!-- Generator: Sketch 53.2 (72643) - https://sketchapp.com -->
    <title>Roadside Assistance Lockup</title>
    <desc>Created with Sketch.</desc>
    <defs>
        <polygon id="path-1" points="0 150.53091 399.797516 150.53091 399.797516 -1.42108547e-14 0 -1.42108547e-14"></polygon>
    </defs>
    <g id="Breakpoints" stroke="none" stroke-width="1" fill="none" fill-rule="evenodd">
        <g id="1024-about-copy" transform="translate(-67.000000, -50.000000)">
            <g id="Content">
                <g id="Roadside-Assistance-Lockup" transform="translate(67.000000, 50.000000)">
                    <g id="Group-44">
                        <path d="M73.5781366,43.9496639 C76.7110559,43.9496639 78.5918012,42.4124344 78.5918012,39.9630164 L78.5918012,39.8677131 C78.5918012,37.1769426 76.6154037,35.8327951 73.5296894,35.8327951 L67.3595031,35.8327951 L67.3595031,43.9496639 L73.5781366,43.9496639 Z M58.0079503,27.8112295 L73.9632298,27.8112295 C79.1209938,27.8112295 82.6886957,29.1566148 84.9545342,31.4141885 C86.9309317,33.383377 87.943354,35.9293361 87.943354,39.2426721 L87.943354,39.3379754 C87.943354,44.5251967 85.195528,47.9363115 81.0017391,49.712418 L89.0526708,61.4322459 L78.3023602,61.4322459 L71.5048447,51.2496475 L67.3595031,51.2496475 L67.3595031,61.4322459 L58.0079503,61.4322459 L58.0079503,27.8112295 Z" id="Fill-1" fill="#FEFEFE"></path>
                        <path d="M121.924596,44.7177836 L121.924596,44.6212426 C121.924596,39.7224066 118.453789,35.5439148 113.296025,35.5439148 C108.137019,35.5439148 104.714658,39.6753738 104.714658,44.5259393 L104.714658,44.6212426 C104.714658,49.4730459 108.233913,53.6998082 113.391677,53.6998082 C118.502236,53.6998082 121.924596,49.5683492 121.924596,44.7177836 M95.170559,44.7177836 L95.170559,44.6212426 C95.170559,34.968382 102.979255,27.1398984 113.391677,27.1398984 C123.804099,27.1398984 131.517143,34.871841 131.517143,44.5259393 L131.517143,44.6212426 C131.517143,54.2765787 123.708447,62.1050623 113.296025,62.1050623 C102.883602,62.1050623 95.170559,54.371882 95.170559,44.7177836" id="Fill-3" fill="#FEFEFE"></path>
                        <path d="M157.641366,48.1281557 L153.881118,38.6176311 L150.073665,48.1281557 L157.641366,48.1281557 Z M149.446335,27.5723525 L158.461242,27.5723525 L172.82646,61.4322459 L162.79913,61.4322459 L160.389193,55.3798689 L147.325839,55.3798689 L144.914658,61.4322459 L135.129565,61.4322459 L149.446335,27.5723525 Z" id="Fill-5" fill="#FEFEFE"></path>
                        <path d="M189.067826,36.0248869 L189.067826,53.1708131 L192.87528,53.1708131 C198.515031,53.1708131 202.226832,50.0975918 202.226832,44.6702557 L202.226832,44.5737148 C202.226832,39.1946492 198.515031,36.0248869 192.87528,36.0248869 L189.067826,36.0248869 Z M179.716273,27.811477 L192.779627,27.811477 C204.782112,27.811477 211.772174,34.7277721 211.772174,44.430141 L211.772174,44.526682 C211.772174,54.2278131 204.68646,61.4324934 192.587081,61.4324934 L179.716273,61.4324934 L179.716273,27.811477 Z" id="Fill-7" fill="#FEFEFE"></path>
                        <path d="M217.217143,56.4373639 L222.423354,50.2414131 C225.798509,52.8826754 229.461863,54.2763311 233.366211,54.2763311 C235.920248,54.2763311 237.270559,53.4111754 237.270559,51.9704869 L237.270559,51.8739459 C237.270559,50.4332574 236.161242,49.7129131 231.533913,48.6076426 C224.351304,46.9751098 218.808447,44.9576508 218.808447,38.0896262 L218.808447,37.994323 C218.808447,31.7513393 223.772422,27.2361918 231.871801,27.2361918 C237.608447,27.2361918 242.090435,28.7721836 245.755031,31.7018311 L241.078012,38.2827082 C237.99354,36.0721672 234.619627,34.9681344 231.630807,34.9681344 C229.364969,34.9681344 228.255652,35.8815607 228.255652,37.1291672 L228.255652,37.2257082 C228.255652,38.7629377 229.412174,39.4350115 234.13764,40.4920115 C241.850683,42.1728148 246.670559,44.6705033 246.670559,50.9617574 L246.670559,51.0582984 C246.670559,57.926323 241.223354,62.0082738 233.028323,62.0082738 C227.050683,62.0082738 221.410932,60.1356262 217.217143,56.4373639" id="Fill-9" fill="#FEFEFE"></path>
                        <mask id="mask-2" fill="white">
                            <use xlink:href="#path-1"></use>
                        </mask>
                        <g id="Clip-12"></g>
                        <polygon id="Fill-11" fill="#FEFEFE" mask="url(#mask-2)" points="255.055901 61.4322459 264.407453 61.4322459 264.407453 27.8112295 255.055901 27.8112295"></polygon>
                        <path d="M283.54323,36.0248869 L283.54323,53.1720508 L287.350683,53.1720508 C292.990435,53.1720508 296.702236,50.0975918 296.702236,44.6702557 L296.702236,44.5737148 C296.702236,39.1946492 292.990435,36.0248869 287.350683,36.0248869 L283.54323,36.0248869 Z M274.191677,27.811477 L287.255031,27.811477 C299.257516,27.811477 306.247578,34.7277721 306.247578,44.430141 L306.247578,44.526682 C306.247578,54.2278131 299.161863,61.4324934 287.062484,61.4324934 L274.191677,61.4324934 L274.191677,27.811477 Z" id="Fill-13" fill="#FEFEFE" mask="url(#mask-2)"></path>
                        <polygon id="Fill-14" fill="#FEFEFE" mask="url(#mask-2)" points="314.728944 27.8118484 341.868075 27.8118484 341.868075 35.6886025 323.984845 35.6886025 323.984845 40.828791 340.181118 40.828791 340.181118 48.1758074 323.984845 48.1758074 323.984845 53.5078402 342.109068 53.5078402 342.109068 61.4328648 314.728944 61.4328648"></polygon>
                        <path d="M95.9546584,88.0278016 L93.273913,81.2488918 L90.5596273,88.0278016 L95.9546584,88.0278016 Z M90.1124224,73.3758508 L96.5385093,73.3758508 L106.778261,97.5110967 L99.6304348,97.5110967 L97.9136646,93.1976951 L88.6018634,93.1976951 L86.8838509,97.5110967 L79.9086957,97.5110967 L90.1124224,73.3758508 Z" id="Fill-15" fill="#FEFEFE" mask="url(#mask-2)"></path>
                        <path d="M108.674907,93.9510861 L112.386708,89.5349549 C114.791677,91.4175041 117.402857,92.4101434 120.186708,92.4101434 C122.006584,92.4101434 122.969317,91.7950041 122.969317,90.767709 L122.969317,90.6996352 C122.969317,89.6711025 122.179255,89.1574549 118.881118,88.3715123 C113.760621,87.206832 109.809068,85.7686189 109.809068,80.8734959 L109.809068,80.8041844 C109.809068,76.3546352 113.348199,73.1366025 119.12087,73.1366025 C123.210311,73.1366025 126.405342,74.2319713 129.016522,76.3199795 L125.683602,81.0096434 C123.484845,79.4352828 121.079876,78.6481025 118.949441,78.6481025 C117.334534,78.6481025 116.54323,79.2978975 116.54323,80.1878074 L116.54323,80.2571189 C116.54323,81.3524877 117.368075,81.8314795 120.735776,82.5852418 C126.233913,83.7833402 129.668696,85.5631598 129.668696,90.0486025 L129.668696,90.1166762 C129.668696,95.0130369 125.786708,97.9216434 119.945714,97.9216434 C115.684845,97.9216434 111.664969,96.5873975 108.674907,93.9510861" id="Fill-16" fill="#FEFEFE" mask="url(#mask-2)"></path>
                        <path d="M132.458137,93.9510861 L136.169938,89.5349549 C138.574907,91.4175041 141.186087,92.4101434 143.969938,92.4101434 C145.789814,92.4101434 146.751304,91.7950041 146.751304,90.767709 L146.751304,90.6996352 C146.751304,89.6711025 145.962484,89.1574549 142.663106,88.3715123 C137.543851,87.206832 133.592298,85.7686189 133.592298,80.8734959 L133.592298,80.8054221 C133.592298,76.3546352 137.131429,73.1366025 142.904099,73.1366025 C146.99354,73.1366025 150.187329,74.2319713 152.799752,76.3199795 L149.466832,81.0096434 C147.268075,79.4352828 144.863106,78.6481025 142.732671,78.6481025 C141.116522,78.6481025 140.32646,79.2978975 140.32646,80.1878074 L140.32646,80.2571189 C140.32646,81.3524877 141.151304,81.8314795 144.517764,82.5852418 C150.015901,83.7833402 153.451925,85.5631598 153.451925,90.0486025 L153.451925,90.1166762 C153.451925,95.0130369 149.569938,97.9216434 143.728944,97.9216434 C139.468075,97.9216434 135.448199,96.5873975 132.458137,93.9510861" id="Fill-17" fill="#FEFEFE" mask="url(#mask-2)"></path>
                        <polygon id="Fill-18" fill="#FEFEFE" mask="url(#mask-2)" points="158.578509 73.5470254 165.244348 73.5470254 165.244348 97.511468 158.578509 97.511468"></polygon>
                        <path d="M169.541988,93.9517049 L173.252547,89.5355738 C175.657516,91.418123 178.268696,92.4107623 181.052547,92.4107623 C182.873665,92.4107623 183.835155,91.7943852 183.835155,90.7670902 L183.835155,90.6990164 C183.835155,89.6717213 183.046335,89.1580738 179.746957,88.3708934 C174.627702,87.2074508 170.676149,85.7692377 170.676149,80.8741148 L170.676149,80.8048033 C170.676149,76.3552541 174.21528,73.1372213 179.98795,73.1372213 C184.076149,73.1372213 187.27118,74.2313525 189.883602,76.3205984 L186.550683,81.0102623 C184.351925,79.4359016 181.945714,78.6487213 179.816522,78.6487213 C178.200373,78.6487213 177.410311,79.2985164 177.410311,80.1884262 L177.410311,80.2577377 C177.410311,81.3531066 178.235155,81.8320984 181.601615,82.584623 C187.099752,83.783959 190.535776,85.5637787 190.535776,90.0479836 L190.535776,90.1172951 C190.535776,95.012418 186.653789,97.9222623 180.812795,97.9222623 C176.551925,97.9222623 172.530807,96.5867787 169.541988,93.9517049" id="Fill-19" fill="#FEFEFE" mask="url(#mask-2)"></path>
                        <polygon id="Fill-20" fill="#FEFEFE" mask="url(#mask-2)" points="200.677391 79.3669615 193.496025 79.3669615 193.496025 73.547273 214.559379 73.547273 214.559379 79.3669615 207.34323 79.3669615 207.34323 97.5117156 200.677391 97.5117156"></polygon>
                        <path d="M230.267205,88.0284205 L227.58646,81.2495107 L224.872174,88.0284205 L230.267205,88.0284205 Z M224.424969,73.3764697 L230.851056,73.3764697 L241.090807,97.5117156 L233.942981,97.5117156 L232.226211,93.1983139 L222.91441,93.1983139 L221.196398,97.5117156 L214.221242,97.5117156 L224.424969,73.3764697 Z" id="Fill-21" fill="#FEFEFE" mask="url(#mask-2)"></path>
                        <polygon id="Fill-22" fill="#FEFEFE" mask="url(#mask-2)" points="245.152174 73.5470254 251.37205 73.5470254 261.267702 86.2149352 261.267702 73.5470254 267.865217 73.5470254 267.865217 97.511468 262.056522 97.511468 251.749689 84.3658041 251.749689 97.511468 245.152174 97.511468"></polygon>
                        <path d="M273.060124,85.5983107 L273.060124,85.5302369 C273.060124,78.545868 278.420373,73.0677861 285.704845,73.0677861 C290.617888,73.0677861 293.779379,75.1223762 295.909814,78.0322205 L290.892422,81.9012861 C289.518509,80.2229582 287.938385,79.0941713 285.636522,79.0941713 C282.26882,79.0941713 279.897391,81.9693598 279.897391,85.4609254 L279.897391,85.5302369 C279.897391,89.124532 282.26882,91.9316467 285.636522,91.9316467 C288.144596,91.9316467 289.621615,90.7682041 291.065093,89.0218025 L296.081242,92.5826795 C293.814161,95.6979828 290.755776,97.99145 285.465093,97.99145 C278.591801,97.99145 273.060124,92.7534828 273.060124,85.5983107" id="Fill-23" fill="#FEFEFE" mask="url(#mask-2)"></path>
                        <polygon id="Fill-24" fill="#FEFEFE" mask="url(#mask-2)" points="300.691925 73.5476443 320.037267 73.5476443 320.037267 79.1618738 307.289441 79.1618738 307.289441 82.8254803 318.83354 82.8254803 318.83354 88.0634475 307.289441 88.0634475 307.289441 91.8632016 320.208696 91.8632016 320.208696 97.5120869 300.691925 97.5120869"></polygon>
                        <path d="M86.7464596,6.38767131 L86.7464596,6.35301557 C86.7464596,2.8602123 89.3874534,-0.000123770492 93.1750311,-0.000123770492 C95.4992547,-0.000123770492 96.8918012,0.772204098 98.0359006,1.89480246 L96.3104348,3.87760574 C95.358882,3.01740082 94.3899379,2.49137623 93.1576398,2.49137623 C91.0793789,2.49137623 89.5824845,4.21178607 89.5824845,6.31712213 L89.5824845,6.35301557 C89.5824845,8.45835164 91.043354,10.2121795 93.1576398,10.2121795 C94.5663354,10.2121795 95.4296894,9.65149918 96.3986335,8.77396639 L98.1240994,10.5117041 C96.8557764,11.8620402 95.4470807,12.7049172 93.069441,12.7049172 C89.4408696,12.7049172 86.7464596,9.91513033 86.7464596,6.38767131" id="Fill-25" fill="#FEFEFE" mask="url(#mask-2)"></path>
                        <polygon id="Fill-26" fill="#FEFEFE" mask="url(#mask-2)" points="100.73441 0.210038525 110.033789 0.210038525 110.033789 2.61366148 103.42882 2.61366148 103.42882 5.10639918 109.241242 5.10639918 109.241242 7.51002213 103.42882 7.51002213 103.42882 10.0893992 110.121988 10.0893992 110.121988 12.4942598 100.73441 12.4942598"></polygon>
                        <path d="M118.437516,6.17676639 C119.759255,6.17676639 120.515776,5.4749877 120.515776,4.43902869 L120.515776,4.40437295 C120.515776,3.24588115 119.705839,2.64930738 118.385342,2.64930738 L115.689689,2.64930738 L115.689689,6.17676639 L118.437516,6.17676639 Z M112.977888,0.209790984 L118.613913,0.209790984 C120.181615,0.209790984 121.396522,0.64917623 122.207702,1.45615984 C122.893416,2.14061066 123.263602,3.10602049 123.263602,4.2645123 L123.263602,4.29916803 C123.263602,6.28197131 122.190311,7.52834016 120.621366,8.10758607 L123.633789,12.4940123 L120.463602,12.4940123 L117.821366,8.56306148 L115.689689,8.56306148 L115.690932,12.4940123 L112.977888,12.4940123 L112.977888,0.209790984 Z" id="Fill-27" fill="#FEFEFE" mask="url(#mask-2)"></path>
                        <polygon id="Fill-28" fill="#FEFEFE" mask="url(#mask-2)" points="129.026211 2.70228115 125.274658 2.70228115 125.274658 0.209543443 135.489565 0.209543443 135.489565 2.70228115 131.739255 2.70228115 131.739255 12.4937648 129.026211 12.4937648"></polygon>
                        <polygon id="Fill-29" fill="#FEFEFE" mask="url(#mask-2)" points="138.134907 0.210038525 140.846708 0.210038525 140.84795 12.4942598 138.134907 12.4942598"></polygon>
                        <polygon id="Fill-30" fill="#FEFEFE" mask="url(#mask-2)" points="144.371553 0.210038525 153.75913 0.210038525 153.75913 2.66688279 147.083354 2.66688279 147.083354 5.28215328 152.966584 5.28215328 152.966584 7.73899754 147.083354 7.73899754 147.083354 12.4942598 144.371553 12.4942598"></polygon>
                        <polygon id="Fill-31" fill="#FEFEFE" mask="url(#mask-2)" points="156.491925 12.4946311 159.204969 12.4946311 159.204969 0.210409836 156.491925 0.210409836"></polygon>
                        <polygon id="Fill-32" fill="#FEFEFE" mask="url(#mask-2)" points="162.728571 0.210038525 172.02795 0.210038525 172.02795 2.61366148 165.422981 2.61366148 165.422981 5.10639918 171.235404 5.10639918 171.235404 7.51002213 165.422981 7.51002213 165.422981 10.0893992 172.116149 10.0893992 172.116149 12.4942598 162.728571 12.4942598"></polygon>
                        <path d="M177.684472,2.64918361 L177.684472,10.0543721 L179.780124,10.0543721 C182,10.0543721 183.496894,8.5629377 183.496894,6.38829016 L183.496894,6.35239672 C183.496894,4.17651148 182,2.64918361 179.780124,2.64918361 L177.684472,2.64918361 Z M174.972671,0.209667213 L179.780124,0.209667213 C183.655901,0.209667213 186.332919,2.85959344 186.332919,6.31774098 L186.332919,6.35239672 C186.332919,9.80930656 183.655901,12.4938885 179.780124,12.4938885 L174.972671,12.4938885 L174.972671,0.209667213 Z" id="Fill-33" fill="#FEFEFE" mask="url(#mask-2)"></path>
                        <path d="M199.775404,6.40512295 C201.131925,6.40512295 201.924472,5.59813934 201.924472,4.54485246 L201.924472,4.50895902 C201.924472,3.29848361 201.078509,2.64868852 199.72323,2.64868852 L197.626335,2.64868852 L197.626335,6.40512295 L199.775404,6.40512295 Z M194.914534,0.210409836 L199.951801,0.210409836 C202.893416,0.210409836 204.671056,1.94690984 204.671056,4.45697541 L204.671056,4.49163115 C204.671056,7.33463934 202.452422,8.8087459 199.687205,8.8087459 L197.626335,8.8087459 L197.626335,12.4933934 L194.914534,12.4933934 L194.914534,0.210409836 Z" id="Fill-34" fill="#FEFEFE" mask="url(#mask-2)"></path>
                        <path d="M212.582981,6.17676639 C213.903478,6.17676639 214.661242,5.4749877 214.661242,4.43902869 L214.661242,4.40437295 C214.661242,3.24588115 213.851304,2.64930738 212.530807,2.64930738 L209.835155,2.64930738 L209.835155,6.17676639 L212.582981,6.17676639 Z M207.122112,0.209790984 L212.759379,0.209790984 C214.325839,0.209790984 215.541988,0.64917623 216.351925,1.45615984 C217.038882,2.14061066 217.409068,3.10602049 217.409068,4.2645123 L217.409068,4.29916803 C217.409068,6.28197131 216.334534,7.52834016 214.766832,8.10758607 L217.779255,12.4940123 L214.607826,12.4940123 L211.96559,8.56306148 L209.835155,8.56306148 L209.835155,12.4940123 L207.123354,12.4940123 L207.122112,0.209790984 Z" id="Fill-35" fill="#FEFEFE" mask="url(#mask-2)"></path>
                        <polygon id="Fill-36" fill="#FEFEFE" mask="url(#mask-2)" points="220.300248 0.210038525 229.599627 0.210038525 229.599627 2.61366148 222.994658 2.61366148 222.994658 5.10639918 228.807081 5.10639918 228.807081 7.51002213 222.994658 7.51002213 222.994658 10.0893992 229.687826 10.0893992 229.687826 12.4942598 220.300248 12.4942598"></polygon>
                        <polygon id="Fill-37" fill="#FEFEFE" mask="url(#mask-2)" points="231.945342 8.33470492 237.370186 8.33470492 237.370186 5.77265574 231.945342 5.77265574"></polygon>
                        <path d="M249.894286,6.38767131 L249.894286,6.35301557 C249.894286,4.2464418 248.343975,2.49137623 246.160124,2.49137623 C243.976273,2.49137623 242.461988,4.21178607 242.461988,6.31712213 L242.461988,6.35301557 C242.461988,8.45835164 244.011056,10.2121795 246.194907,10.2121795 C248.38,10.2121795 249.894286,8.49300738 249.894286,6.38767131 M239.625963,6.38767131 L239.625963,6.35301557 C239.625963,2.8602123 242.39118,-0.000123770492 246.194907,-0.000123770492 C249.999876,-0.000123770492 252.730311,2.82555656 252.730311,6.31712213 L252.730311,6.35301557 C252.730311,9.84458115 249.965093,12.7049172 246.160124,12.7049172 C242.356398,12.7049172 239.625963,9.87923689 239.625963,6.38767131" id="Fill-38" fill="#FEFEFE" mask="url(#mask-2)"></path>
                        <polygon id="Fill-39" fill="#FEFEFE" mask="url(#mask-2)" points="253.931553 0.210038525 256.837143 0.210038525 259.39118 8.52865328 262.156398 0.175382787 264.481863 0.175382787 267.247081 8.52865328 269.799876 0.210038525 272.635901 0.210038525 268.427205 12.5821369 266.066957 12.5821369 263.284348 4.54448115 260.501739 12.5821369 258.140248 12.5821369"></polygon>
                        <polygon id="Fill-40" fill="#FEFEFE" mask="url(#mask-2)" points="275.089689 0.210038525 277.590311 0.210038525 283.36795 7.77365328 283.36795 0.210038525 286.044969 0.210038525 286.044969 12.4942598 283.736894 12.4942598 277.766708 4.68557951 277.766708 12.4942598 275.089689 12.4942598"></polygon>
                        <polygon id="Fill-41" fill="#FEFEFE" mask="url(#mask-2)" points="289.447578 0.210038525 298.746957 0.210038525 298.746957 2.61366148 292.141988 2.61366148 292.141988 5.10639918 297.95441 5.10639918 297.95441 7.51002213 292.141988 7.51002213 292.141988 10.0893992 298.835155 10.0893992 298.835155 12.4942598 289.447578 12.4942598"></polygon>
                        <path d="M304.403478,2.64918361 L304.403478,10.0543721 L306.49913,10.0543721 C308.719006,10.0543721 310.215901,8.5629377 310.215901,6.38829016 L310.215901,6.35239672 C310.215901,4.17651148 308.719006,2.64918361 306.49913,2.64918361 L304.403478,2.64918361 Z M301.690435,0.209667213 L306.49913,0.209667213 C310.374907,0.209667213 313.050683,2.85959344 313.050683,6.31774098 L313.050683,6.35239672 C313.050683,9.80930656 310.374907,12.4938885 306.49913,12.4938885 L301.690435,12.4938885 L301.690435,0.209667213 Z" id="Fill-42" fill="#FEFEFE" mask="url(#mask-2)"></path>
                        <path d="M377.771801,131.526446 C374.431429,131.339552 344.128323,129.700831 309.401615,129.700831 C269.994161,129.700831 255.35441,130.574651 231.078634,134.379356 C231.023975,134.38802 230.970559,134.396684 230.917143,134.409061 L215.32087,137.700118 C213.173043,138.154356 211.392919,139.543061 210.561863,141.40952 C210.01528,142.639798 206.005342,144.34288 199.899752,144.34288 C193.792919,144.34288 189.784224,142.639798 189.236398,141.40952 C188.405342,139.543061 186.62646,138.154356 184.476149,137.700118 L168.881118,134.409061 C168.827702,134.396684 168.774286,134.38802 168.719627,134.379356 C144.445093,130.574651 129.804099,129.700831 90.396646,129.700831 C55.6699379,129.700831 25.3668323,131.339552 21.9245963,131.533872 C20.5096894,131.65888 12.4252174,132.082175 6.3842236,132.389126 L11.0749068,22.7470361 L17.9457143,22.7470361 C16.9593789,44.5863393 15.9730435,85.3909951 14.9867081,107.231536 C14.7631056,112.183593 14.528323,116.901725 14.3047205,121.845118 C14.2873292,121.949085 14.281118,122.048102 14.2910559,122.137216 C14.4475776,123.506118 15.8922981,124.025954 17.3134161,123.883618 C17.4252174,123.871241 18.8575155,123.727667 21.3904348,123.50488 C25.3693168,123.27838 130.502236,117.4327 178.994161,127.781151 C178.994161,127.781151 192.219006,129.376552 197.640124,134.85711 C197.640124,134.85711 198.847578,135.785389 199.899752,135.635626 C200.950683,135.785389 202.158137,134.85711 202.158137,134.85711 C207.579255,129.376552 220.804099,127.781151 220.804099,127.781151 C269.296025,117.4327 374.430186,123.27838 378.407826,123.50488 C380.940745,123.727667 382.373043,123.871241 382.484845,123.883618 C383.905963,124.025954 385.350683,123.506118 385.507205,122.137216 C385.517143,122.048102 385.510932,121.949085 385.49354,121.845118 C385.269938,116.901725 385.035155,112.184831 384.811553,107.231536 C383.825217,85.3909951 382.838882,44.5863393 381.852547,22.7470361 L388.724596,22.7470361 L393.414037,132.389126 C387.369317,132.082175 379.27118,131.657643 377.771801,131.526446 L377.771801,131.526446 Z M394.775528,19.4931098 C394.691056,17.8482 393.327081,16.5585115 391.674907,16.5585115 L381.573043,16.5585115 L381.535776,15.7329623 C381.401615,12.7872246 381.268696,9.84148689 381.135776,6.89574918 C381.069938,5.42783115 379.81528,4.30399508 378.341988,4.38568361 C364.389193,5.15801148 350.416522,5.35480656 336.452547,4.99092131 C331.573043,4.74833115 329.087329,4.48222459 324.119627,4.09853607 C324.118385,4.09853607 324.115901,4.09853607 324.114658,4.09853607 C322.674907,3.98961803 321.430186,5.0144377 321.350683,6.37838852 C321.334534,6.6234541 321.322112,6.86604426 321.307205,7.11110984 C321.22646,8.48001148 322.346957,9.6942 323.802857,9.81054426 C323.804099,9.81054426 323.805342,9.81054426 323.806584,9.81054426 C328.488571,10.1719541 330.686087,10.4516754 335.283602,10.6893148 C335.283602,10.6905525 335.283602,10.6917902 335.283602,10.6917902 C348.630186,11.0668148 361.984224,10.9306672 375.323354,10.2759213 C376.278634,36.3927328 377.235155,81.4761344 378.191677,107.594184 C378.305963,110.715675 378.419006,113.83593 378.534534,116.957421 C378.361863,116.943807 378.184224,116.930192 377.992919,116.915339 C377.992919,116.933905 377.992919,116.953708 377.992919,116.972274 C369.807826,116.519274 268.223975,111.155061 220.804099,121.272061 C220.804099,121.272061 207.579255,122.8687 202.158137,128.349257 C202.158137,128.349257 200.950683,129.278774 199.899752,129.127774 C198.847578,129.278774 197.640124,128.349257 197.640124,128.349257 C192.219006,122.8687 178.994161,121.272061 178.994161,121.272061 C131.574286,111.155061 29.991677,116.519274 21.8053416,116.972274 L21.8053416,116.915339 C21.6152795,116.930192 21.4376398,116.943807 21.2649689,116.957421 C21.3792547,113.83593 21.4922981,110.715675 21.6078261,107.594184 C22.5631056,81.4761344 23.5196273,36.3927328 24.4749068,10.2759213 C37.8140373,10.9306672 51.1680745,11.0668148 64.5146584,10.6917902 L64.5146584,10.6893148 C69.1109317,10.4516754 71.3096894,10.1719541 75.9904348,9.81054426 C75.991677,9.81054426 75.9941615,9.81054426 75.9954037,9.81054426 C77.4513043,9.6942 78.5718012,8.48001148 78.4910559,7.11110984 C78.4761491,6.86604426 78.4624845,6.6234541 78.4475776,6.37838852 C78.3680745,5.0144377 77.1221118,3.98838033 75.6823602,4.09853607 C75.681118,4.09853607 75.6798758,4.09853607 75.6786335,4.09853607 C70.7096894,4.48222459 68.2239752,4.74833115 63.344472,4.99092131 C49.3817391,5.35480656 35.4090683,5.15801148 21.4550311,4.38568361 C19.9829814,4.30399508 18.728323,5.42783115 18.6624845,6.89574918 C18.528323,9.84148689 18.3954037,12.7872246 18.2624845,15.7329623 L18.2252174,16.5585115 L8.12459627,16.5585115 C6.47242236,16.5585115 5.1084472,17.8482 5.02397516,19.4931098 L0.00409937888,135.492052 C-0.041863354,136.365872 0.287329193,137.218651 0.908447205,137.838741 C1.52832298,138.458831 2.38919255,138.795487 3.26,138.742266 C3.95192547,138.70761 20.2190062,137.896913 22.3742857,137.705069 C25.6972671,137.519413 55.838882,135.889356 90.396646,135.889356 C129.364348,135.889356 143.838882,136.748323 167.674907,140.478766 L183.186708,143.753733 C183.405342,143.799528 183.540745,143.898544 183.559379,143.919585 C186.289814,150.054889 196.756894,150.531405 199.899752,150.531405 C203.041366,150.531405 213.508447,150.054889 216.230186,143.936913 C216.258758,143.898544 216.394161,143.799528 216.610311,143.753733 L232.122112,140.480003 C255.961863,136.748323 270.431429,135.889356 309.401615,135.889356 C343.959379,135.889356 374.100994,137.519413 377.322112,137.697643 C379.579255,137.896913 395.846335,138.70761 396.537019,138.742266 C397.410311,138.794249 398.269938,138.458831 398.889814,137.838741 C399.510932,137.218651 399.838882,136.365872 399.794161,135.492052 L394.775528,19.4931098 Z" id="Fill-43" fill="#E4E4E4" mask="url(#mask-2)"></path>
                    </g>
                </g>
            </g>
        </g>
    </g>
</svg>