<?xml version="1.0" encoding="UTF-8"?>
<svg width="400px" height="132px" viewBox="0 0 400 132" version="1.1" xmlns="http://www.w3.org/2000/svg" xmlns:xlink="http://www.w3.org/1999/xlink">
    <!-- Generator: Sketch 53.2 (72643) - https://sketchapp.com -->
    <title>Inspection Lockup</title>
    <desc>Created with Sketch.</desc>
    <defs>
        <polygon id="path-1" points="0 131.757009 399.797516 131.757009 399.797516 0.509626168 0 0.509626168"></polygon>
    </defs>
    <g id="Breakpoints" stroke="none" stroke-width="1" fill="none" fill-rule="evenodd">
        <g id="1024-about" transform="translate(-67.000000, -51.000000)">
            <g id="Content">
                <g id="Inspection-Lockup" transform="translate(67.000000, 50.000000)">
                    <g id="Group-37">
                        <polygon id="Fill-1" fill="#FEFEFE" points="48.3701863 71.8523178 57.3726708 71.8523178 57.3726708 39.3518411 48.3701863 39.3518411"></polygon>
                        <polygon id="Fill-2" fill="#FEFEFE" points="64.4752795 39.3514682 72.8740373 39.3514682 86.2380124 56.5308421 86.2380124 39.3514682 95.1473292 39.3514682 95.1473292 71.8519449 87.3050932 71.8519449 73.3845963 54.0237299 73.3845963 71.8519449 64.4752795 71.8519449"></polygon>
                        <g id="Group-36" transform="translate(0.000000, 0.733364)">
                            <path d="M99.6090683,66.2904318 L104.620248,60.3017028 C107.867453,62.8548056 111.394161,64.2009645 115.153168,64.2009645 C117.612795,64.2009645 118.912174,63.3644318 118.912174,61.9722822 L118.912174,61.8790579 C118.912174,60.4869084 117.845093,59.7908336 113.390435,58.7218617 C106.476149,57.1445065 101.139503,55.1930112 101.139503,48.5529551 L101.139503,48.4609738 C101.139503,42.4262542 105.919627,38.060871 113.714658,38.060871 C119.236398,38.060871 123.551925,39.5462449 127.078634,42.3790206 L122.578012,48.7406467 C119.607826,46.6039458 116.359379,45.5362168 113.48236,45.5362168 C111.302236,45.5362168 110.235155,46.4187402 110.235155,47.6256841 L110.235155,47.7189084 C110.235155,49.2042822 111.348199,49.8543664 115.896025,50.8761047 C123.319627,52.5006935 127.960621,54.9158243 127.960621,60.9977776 L127.960621,61.0897589 C127.960621,67.729815 122.717143,71.6763103 114.828944,71.6763103 C109.074907,71.6763103 103.646335,69.8652729 99.6090683,66.2904318" id="Fill-3" fill="#FEFEFE"></path>
                            <path d="M146.80559,54.7757393 C149.96087,54.7757393 151.955901,53.0579262 151.955901,50.5035804 L151.955901,50.4103561 C151.955901,47.626057 149.96087,46.1866738 146.759627,46.1866738 L142.490062,46.1866738 L142.490062,54.7757393 L146.80559,54.7757393 Z M133.48882,38.6181037 L147.45528,38.6181037 C155.622981,38.6181037 160.91118,42.843029 160.91118,49.9927112 L160.91118,50.0871785 C160.91118,57.7937206 155.019255,61.8334402 146.990683,61.8334402 L142.490062,61.8334402 L142.490062,71.1185804 L133.48882,71.1185804 L133.48882,38.6181037 Z" id="Fill-5" fill="#FEFEFE"></path>
                            <polygon id="Fill-7" fill="#FEFEFE" points="165.883106 38.6181037 192.007329 38.6181037 192.007329 46.2326645 174.792422 46.2326645 174.792422 51.2008981 190.383727 51.2008981 190.383727 58.3045897 174.792422 58.3045897 174.792422 63.458029 192.239627 63.458029 192.239627 71.1185804 165.883106 71.1185804"></polygon>
                            <path d="M196.746087,54.9614421 L196.746087,54.8682178 C196.746087,45.397872 203.984596,37.9685168 213.821863,37.9685168 C220.457888,37.9685168 224.726211,40.7528159 227.60323,44.7005542 L220.829317,49.9472178 C218.973416,47.6725449 216.838012,46.1399374 213.729938,46.1399374 C209.182112,46.1399374 205.98087,50.0391991 205.98087,54.7762364 L205.98087,54.8682178 C205.98087,59.7444701 209.182112,63.5505075 213.729938,63.5505075 C217.116273,63.5505075 219.112547,61.9731523 221.060373,59.6040121 L227.835528,64.4330308 C224.773416,68.6591991 220.642981,71.7691617 213.49764,71.7691617 C204.216894,71.7691617 196.746087,64.6654701 196.746087,54.9614421" id="Fill-9" fill="#FEFEFE"></path>
                            <polygon id="Fill-11" fill="#FEFEFE" points="240.834534 46.5118402 231.136398 46.5118402 231.136398 38.6176065 259.581118 38.6176065 259.581118 46.5118402 249.837019 46.5118402 249.837019 71.1193262 240.834534 71.1193262"></polygon>
                            <mask id="mask-2" fill="white">
                                <use xlink:href="#path-1"></use>
                            </mask>
                            <g id="Clip-14"></g>
                            <polygon id="Fill-13" fill="#FEFEFE" mask="url(#mask-2)" points="264.922981 71.1189533 273.924224 71.1189533 273.924224 38.6184766 264.922981 38.6184766"></polygon>
                            <path d="M305.713416,54.9614421 L305.713416,54.8682178 C305.713416,50.1324234 302.373043,46.0927037 297.406584,46.0927037 C292.442609,46.0927037 289.148199,50.0864327 289.148199,54.7762364 L289.148199,54.8682178 C289.148199,59.5580215 292.535776,63.6437318 297.500994,63.6437318 C302.419006,63.6437318 305.713416,59.6500028 305.713416,54.9614421 M279.960621,54.9614421 L279.960621,54.8682178 C279.960621,45.5358439 287.477391,37.9685168 297.500994,37.9685168 C307.523354,37.9685168 314.948199,45.4438626 314.948199,54.7762364 L314.948199,54.8682178 C314.948199,64.2018346 307.430186,71.7691617 297.406584,71.7691617 C287.384224,71.7691617 279.960621,64.2938159 279.960621,54.9614421" id="Fill-15" fill="#FEFEFE" mask="url(#mask-2)"></path>
                            <polygon id="Fill-16" fill="#FEFEFE" mask="url(#mask-2)" points="320.755528 38.6181037 329.154286 38.6181037 342.518261 55.7974776 342.518261 38.6181037 351.427578 38.6181037 351.427578 71.1185804 343.585342 71.1185804 329.664845 53.2903654 329.664845 71.1185804 320.755528 71.1185804"></polygon>
                            <path d="M89.2381366,6.79915888 L89.2381366,6.76435514 C89.2381366,3.32624299 91.8281988,0.508383178 95.5412422,0.508383178 C97.8207453,0.508383178 99.1847205,1.27033645 100.307702,2.37535514 L98.6145342,4.32809346 C97.6828571,3.48161682 96.7325466,2.96204673 95.5238509,2.96204673 C93.4853416,2.96204673 92.0182609,4.65624299 92.0182609,6.7295514 L92.0182609,6.76435514 C92.0182609,8.83890654 93.4518012,10.5654206 95.5238509,10.5654206 C96.9052174,10.5654206 97.7511801,10.0135327 98.7014907,9.14965421 L100.393416,10.8600093 C99.1499379,12.1900093 97.7685714,13.0190841 95.4381366,13.0190841 C91.8791304,13.0190841 89.2381366,10.2720748 89.2381366,6.79915888" id="Fill-17" fill="#FEFEFE" mask="url(#mask-2)"></path>
                            <polygon id="Fill-18" fill="#FEFEFE" mask="url(#mask-2)" points="102.952422 0.716584112 112.070435 0.716584112 112.070435 3.08323832 105.593416 3.08323832 105.593416 5.53814486 111.292795 5.53814486 111.292795 7.90479907 105.593416 7.90479907 105.593416 10.444229 112.156149 10.444229 112.156149 12.8108832 102.952422 12.8108832"></polygon>
                            <path d="M120.309689,6.59157944 C121.605342,6.59157944 122.348199,5.90047664 122.348199,4.8812243 L122.348199,4.84642056 C122.348199,3.70659813 121.553168,3.11866355 120.257516,3.11866355 L117.616522,3.11866355 L117.616522,6.59157944 L120.309689,6.59157944 Z M114.956894,0.715962617 L120.48236,0.715962617 C122.019006,0.715962617 123.211553,1.14852336 124.005342,1.94403738 C124.678634,2.61773832 125.041366,3.56738318 125.041366,4.70720561 L125.041366,4.74325234 C125.041366,6.69599065 123.98795,7.92157944 122.451304,8.49211215 L125.404099,12.8115047 L122.296025,12.8115047 L119.705963,8.94207477 L117.616522,8.94207477 L117.616522,12.8115047 L114.956894,12.8115047 L114.956894,0.715962617 Z" id="Fill-19" fill="#FEFEFE" mask="url(#mask-2)"></path>
                            <polygon id="Fill-20" fill="#FEFEFE" mask="url(#mask-2)" points="130.691677 3.17099346 127.013416 3.17099346 127.013416 0.716086916 137.029565 0.716086916 137.029565 3.17099346 133.351304 3.17099346 133.351304 12.811629 130.691677 12.811629"></polygon>
                            <polygon id="Fill-21" fill="#FEFEFE" mask="url(#mask-2)" points="139.62236 12.8102617 142.281988 12.8102617 142.281988 0.715962617 139.62236 0.715962617"></polygon>
                            <polygon id="Fill-22" fill="#FEFEFE" mask="url(#mask-2)" points="145.73677 0.716584112 154.940497 0.716584112 154.940497 3.13544393 148.396398 3.13544393 148.396398 5.71092056 154.164099 5.71092056 154.164099 8.12978037 148.396398 8.12978037 148.396398 12.8108832 145.73677 12.8108832"></polygon>
                            <polygon id="Fill-23" fill="#FEFEFE" mask="url(#mask-2)" points="157.621118 12.8102617 160.280745 12.8102617 160.280745 0.715962617 157.621118 0.715962617"></polygon>
                            <polygon id="Fill-24" fill="#FEFEFE" mask="url(#mask-2)" points="163.73528 0.716584112 172.85205 0.716584112 172.85205 3.08323832 166.376273 3.08323832 166.376273 5.53814486 172.075652 5.53814486 172.075652 7.90479907 166.376273 7.90479907 166.376273 10.444229 172.939006 10.444229 172.939006 12.8108832 163.73528 12.8108832"></polygon>
                            <path d="M178.398261,3.11878785 L178.398261,10.410171 L180.454161,10.410171 C182.629317,10.410171 184.09764,8.94219907 184.09764,6.79928318 L184.09764,6.76447944 C184.09764,4.62156355 182.629317,3.11878785 180.452919,3.11878785 L178.398261,3.11878785 Z M175.739876,0.716086916 L180.452919,0.716086916 C184.252919,0.716086916 186.877764,3.32636729 186.877764,6.7296757 L186.877764,6.76447944 C186.877764,10.1690308 184.252919,12.811629 180.454161,12.811629 L175.739876,12.811629 L175.739876,0.716086916 Z" id="Fill-25" fill="#FEFEFE" mask="url(#mask-2)"></path>
                            <path d="M200.057888,6.81618785 C201.387081,6.81618785 202.16472,6.02067383 202.16472,4.98401963 L202.16472,4.95045888 C202.16472,3.75718785 201.336149,3.11829065 200.005714,3.11829065 L197.951056,3.11829065 L197.951056,6.81618785 L200.057888,6.81618785 Z M195.291429,0.71683271 L200.230559,0.71683271 C203.113789,0.71683271 204.857888,2.42718785 204.857888,4.89825327 L204.857888,4.93181402 C204.857888,7.73227196 202.682733,9.18284206 199.970932,9.18284206 L197.951056,9.18284206 L197.951056,12.8111318 L195.291429,12.8111318 L195.291429,0.71683271 Z" id="Fill-26" fill="#FEFEFE" mask="url(#mask-2)"></path>
                            <path d="M212.614907,6.59157944 C213.909317,6.59157944 214.652174,5.90047664 214.652174,4.8812243 L214.652174,4.84642056 C214.652174,3.70659813 213.858385,3.11866355 212.562733,3.11866355 L209.920497,3.11866355 L209.920497,6.59157944 L212.614907,6.59157944 Z M207.26087,0.715962617 L212.787578,0.715962617 C214.324224,0.715962617 215.515528,1.14852336 216.310559,1.94403738 C216.983851,2.61773832 217.346584,3.56738318 217.346584,4.70720561 L217.346584,4.74325234 C217.346584,6.69599065 216.293168,7.92157944 214.756522,8.49211215 L217.709317,12.8115047 L214.601242,12.8115047 L212.009938,8.94207477 L209.920497,8.94207477 L209.920497,12.8115047 L207.26087,12.8115047 L207.26087,0.715962617 Z" id="Fill-27" fill="#FEFEFE" mask="url(#mask-2)"></path>
                            <polygon id="Fill-28" fill="#FEFEFE" mask="url(#mask-2)" points="220.181118 0.716584112 229.29913 0.716584112 229.29913 3.08323832 222.823354 3.08323832 222.823354 5.53814486 228.521491 5.53814486 228.521491 7.90479907 222.823354 7.90479907 222.823354 10.444229 229.384845 10.444229 229.384845 12.8108832 220.181118 12.8108832"></polygon>
                            <polygon id="Fill-29" fill="#FEFEFE" mask="url(#mask-2)" points="231.598758 8.71709346 236.918012 8.71709346 236.918012 6.19382243 231.598758 6.19382243"></polygon>
                            <path d="M249.196522,6.79915888 L249.196522,6.76435514 C249.196522,4.69104673 247.677267,2.96328972 245.535652,2.96328972 C243.394037,2.96328972 241.909565,4.65624299 241.909565,6.7295514 L241.909565,6.76435514 C241.909565,8.83890654 243.42882,10.5654206 245.570435,10.5654206 C247.71205,10.5654206 249.196522,8.87246729 249.196522,6.79915888 M239.129441,6.79915888 L239.129441,6.76435514 C239.129441,3.32624299 241.84,0.508383178 245.570435,0.508383178 C249.299627,0.508383178 251.976646,3.29143925 251.976646,6.7295514 L251.976646,6.76435514 C251.976646,10.2024673 249.266087,13.0190841 245.535652,13.0190841 C241.80646,13.0190841 239.129441,10.238514 239.129441,6.79915888" id="Fill-30" fill="#FEFEFE" mask="url(#mask-2)"></path>
                            <polygon id="Fill-31" fill="#FEFEFE" mask="url(#mask-2)" points="253.155031 0.716584112 256.003478 0.716584112 258.509068 8.90789252 261.219627 0.683023364 263.49913 0.683023364 266.209689 8.90789252 268.714037 0.716584112 271.494161 0.716584112 267.367453 12.8991355 265.053168 12.8991355 262.325217 4.98501402 259.596025 12.8991355 257.281739 12.8991355"></polygon>
                            <polygon id="Fill-32" fill="#FEFEFE" mask="url(#mask-2)" points="273.899379 0.716584112 276.351553 0.716584112 282.016149 8.16334112 282.016149 0.716584112 284.639752 0.716584112 284.639752 12.8108832 282.378882 12.8108832 276.524224 5.12298598 276.524224 12.8108832 273.899379 12.8108832"></polygon>
                            <polygon id="Fill-33" fill="#FEFEFE" mask="url(#mask-2)" points="287.977019 0.716584112 297.093789 0.716584112 297.093789 3.08323832 290.618012 3.08323832 290.618012 5.53814486 296.317391 5.53814486 296.317391 7.90479907 290.618012 7.90479907 290.618012 10.444229 297.180745 10.444229 297.180745 12.8108832 287.977019 12.8108832"></polygon>
                            <path d="M302.64,3.11878785 L302.64,10.410171 L304.695901,10.410171 C306.871056,10.410171 308.339379,8.94219907 308.339379,6.79928318 L308.339379,6.76447944 C308.339379,4.62156355 306.871056,3.11878785 304.694658,3.11878785 L302.64,3.11878785 Z M299.981615,0.716086916 L304.694658,0.716086916 C308.494658,0.716086916 311.119503,3.32636729 311.119503,6.7296757 L311.119503,6.76572243 C311.119503,10.1690308 308.494658,12.811629 304.695901,12.811629 L299.981615,12.811629 L299.981615,0.716086916 Z" id="Fill-34" fill="#FEFEFE" mask="url(#mask-2)"></path>
                            <path d="M377.771677,112.671882 C374.431304,112.484191 344.128199,110.838471 309.401491,110.838471 C269.994037,110.838471 255.354286,111.716022 231.078509,115.536976 C231.023851,115.545677 230.970435,115.554378 230.917019,115.566807 L215.320745,118.87192 C213.172919,119.328097 211.392795,120.722733 210.561739,122.597163 C210.015155,123.832695 206.005217,125.541807 199.899627,125.541807 C193.792795,125.541807 189.784099,123.832695 189.236273,122.597163 C188.405217,120.722733 186.626335,119.328097 184.476025,118.87192 L168.880994,115.566807 C168.827578,115.554378 168.774161,115.545677 168.719503,115.536976 C144.444969,111.716022 129.803975,110.838471 90.3965217,110.838471 C55.6698137,110.838471 25.3667081,112.484191 21.924472,112.67934 C20.5095652,112.804882 12.4250932,113.229985 6.38409938,113.538247 L11.0747826,22.4755084 L17.9455901,22.4755084 C16.9592547,44.4068355 15.9729193,66.3394056 14.9865839,88.2719757 C14.7629814,93.2464243 14.5281988,97.9847047 14.3045963,102.947966 C14.287205,103.053621 14.2809938,103.151817 14.2909317,103.241312 C14.4474534,104.617303 15.8921739,105.138116 17.3132919,104.996415 C17.4250932,104.983985 18.8573913,104.838555 21.3903106,104.61606 C25.3691925,104.38735 130.502112,98.5179477 178.994037,108.910593 C178.994037,108.910593 192.218882,110.512807 197.64,116.015527 C197.64,116.015527 198.847453,116.949013 199.899627,116.797368 C200.950559,116.949013 202.158012,116.015527 202.158012,116.015527 C207.57913,110.512807 220.803975,108.910593 220.803975,108.910593 C269.295901,98.5179477 374.430062,104.388593 378.407702,104.61606 C380.940621,104.838555 382.372919,104.983985 382.48472,104.996415 C383.905839,105.138116 385.350559,104.617303 385.507081,103.241312 C385.517019,103.151817 385.510807,103.053621 385.493416,102.949209 C385.269814,97.9847047 385.035031,93.2464243 384.811429,88.2719757 C383.825093,66.3394056 382.838758,44.4068355 381.852422,22.4755084 L388.724472,22.4755084 L393.413913,113.538247 C387.369193,113.229985 379.271056,112.803639 377.771677,112.671882 L377.771677,112.671882 Z M394.775404,19.207686 C394.690932,17.5557514 393.326957,16.2605551 391.674783,16.2605551 L381.572919,16.2605551 L381.535652,15.4314804 C381.401491,12.4719196 381.268571,9.51360187 381.135652,6.55528411 C381.069814,5.0810972 379.815155,3.95246168 378.341863,4.03449907 C364.389068,4.81012523 350.416398,5.00651776 336.452422,4.6423215 C331.572919,4.39869533 326.677267,4.13145234 321.801491,3.74612523 C321.800248,3.74612523 321.799006,3.74612523 321.797764,3.74488224 C320.385342,3.63549907 319.162981,4.66469533 319.08472,6.03571402 C319.069814,6.28182617 319.056149,6.52545234 319.042484,6.77280748 C318.962981,8.14506916 320.06236,9.36692897 321.490932,9.48128411 C321.492174,9.48128411 321.494658,9.48128411 321.495901,9.4825271 C326.089689,9.84423738 330.685963,10.1263963 335.283478,10.3650505 C335.283478,10.3650505 335.283478,10.3662935 335.283478,10.3675364 C348.630062,10.7441626 361.984099,10.6074336 375.32323,9.9486486 C376.278509,36.1782374 377.235031,62.4078262 378.191553,88.637415 C378.305839,91.7722374 378.418882,94.9045738 378.53441,98.0393963 C378.361739,98.0257234 378.184099,98.0120505 377.992795,97.9971346 C377.992795,98.0170224 377.992795,98.0369103 377.992795,98.0555551 C369.807702,97.6006206 268.223851,92.2122561 220.803975,102.373705 C220.803975,102.373705 207.57913,103.977163 202.158012,109.481125 C202.158012,109.481125 200.950559,110.414611 199.899627,110.262966 C198.847453,110.414611 197.64,109.481125 197.64,109.481125 C192.218882,103.977163 178.994037,102.373705 178.994037,102.373705 C131.574161,92.2122561 29.9915528,97.6006206 21.8052174,98.0555551 L21.8052174,97.9971346 C21.6151553,98.0120505 21.4375155,98.0257234 21.2648447,98.0393963 C21.3791304,94.9045738 21.4921739,91.7722374 21.6077019,88.637415 C22.5629814,62.4078262 23.5195031,36.1782374 24.4747826,9.9486486 C37.813913,10.6074336 51.1679503,10.7441626 64.5145342,10.3675364 L64.5145342,10.3638075 C69.1108075,10.1263963 73.708323,9.84423738 78.3021118,9.4825271 C78.303354,9.48128411 78.3045963,9.48128411 78.3058385,9.48128411 C79.7344099,9.36692897 80.8337888,8.14506916 80.755528,6.77280748 C80.7406211,6.52545234 80.7269565,6.28182617 80.7132919,6.03571402 C80.6337888,4.66469533 79.4126708,3.63549907 77.9990062,3.74488224 C77.997764,3.74612523 77.9965217,3.74612523 77.9952795,3.74612523 C73.1195031,4.13145234 68.2238509,4.39869533 63.3443478,4.6423215 C49.3816149,5.00651776 35.4089441,4.81012523 21.4549068,4.03449907 C19.9828571,3.95246168 18.7281988,5.0810972 18.6623602,6.55528411 C18.5281988,9.51360187 18.3952795,12.4719196 18.2623602,15.4314804 L18.2250932,16.2605551 L8.12447205,16.2605551 C6.47229814,16.2605551 5.10832298,17.5557514 5.02385093,19.207686 L0.00397515528,116.654424 C-0.0419875776,117.531976 0.287204969,118.388396 0.908322981,119.011135 C1.52819876,119.633873 2.38906832,119.971966 3.25987578,119.918518 C3.95180124,119.883714 20.218882,119.069555 22.3741615,118.876892 C25.6971429,118.690443 55.8387578,117.053424 90.3965217,117.053424 C129.364224,117.053424 143.838758,117.91606 167.674783,121.662434 L183.186584,124.951387 C183.405217,124.997378 183.540621,125.096817 183.559255,125.117948 C186.289689,131.279452 196.75677,131.756761 199.899627,131.756761 C203.041242,131.756761 213.508323,131.279452 216.230062,125.13535 C216.258634,125.096817 216.394037,124.997378 216.610186,124.951387 L232.121988,121.663677 C255.961739,117.91606 270.431304,117.053424 309.401491,117.053424 C343.959255,117.053424 374.10087,118.690443 377.321988,118.869434 C379.57913,119.069555 395.846211,119.883714 396.536894,119.918518 C397.410186,119.970723 398.269814,119.633873 398.889689,119.011135 C399.510807,118.388396 399.838758,117.531976 399.794037,116.654424 L394.775404,19.207686 Z" id="Fill-35" fill="#E4E4E4" mask="url(#mask-2)"></path>
                        </g>
                    </g>
                </g>
            </g>
        </g>
    </g>
</svg>