<?xml version="1.0" encoding="UTF-8"?>
<svg width="75px" height="75px" viewBox="0 0 75 75" version="1.1" xmlns="http://www.w3.org/2000/svg" xmlns:xlink="http://www.w3.org/1999/xlink">
    <!-- Generator: Sketch 53.2 (72643) - https://sketchapp.com -->
    <title>Play Button</title>
    <desc>Created with Sketch.</desc>
    <g id="Breakpoints" stroke="none" stroke-width="1" fill="none" fill-rule="evenodd">
        <g id="Story-Time-1440px-Full-Screen-Modal-Updated-Video-TIles" transform="translate(-502.000000, -851.000000)">
            <g id="Group" transform="translate(363.000000, 790.000000)">
                <g id="Play-Button" transform="translate(139.000000, 61.000000)">
                    <circle id="Oval" fill-opacity="0.75" fill="#003760" cx="36.94" cy="37.44" r="33.5"></circle>
                    <path d="M37.44,67.5 C42.840027,67.5 47.8799766,66.1200138 52.56,63.36 C57.1200228,60.7199868 60.7199868,57.1200228 63.36,52.56 C66.1200138,47.8799766 67.5,42.840027 67.5,37.44 C67.5,32.039973 66.1200138,27.0000234 63.36,22.32 C60.7199868,17.7599772 57.1200228,14.1600132 52.56,11.52 C47.8799766,8.7599862 42.840027,7.38 37.44,7.38 C32.039973,7.38 27.0000234,8.7599862 22.32,11.52 C17.7599772,14.1600132 14.1600132,17.7599772 11.52,22.32 C8.7599862,27.0000234 7.38,32.039973 7.38,37.44 C7.38,42.840027 8.7599862,47.8799766 11.52,52.56 C14.1600132,57.1200228 17.7599772,60.7199868 22.32,63.36 C27.0000234,66.1200138 32.039973,67.5 37.44,67.5 Z M37.44,5.68434189e-14 C44.2800342,5.68434189e-14 50.6099709,1.7099829 56.43,5.13 C62.0700282,8.3700162 66.5099838,12.8099718 69.75,18.45 C73.1700171,24.2700291 74.88,30.5999658 74.88,37.44 C74.88,44.2800342 73.1700171,50.6099709 69.75,56.43 C66.5099838,62.0700282 62.0700282,66.5099838 56.43,69.75 C50.6099709,73.1700171 44.2800342,74.88 37.44,74.88 C30.5999658,74.88 24.2700291,73.1700171 18.45,69.75 C12.8099718,66.4499835 8.3700162,61.9800282 5.13,56.34 C1.7099829,50.5199709 0,44.2200339 0,37.44 C0,30.6599661 1.7099829,24.3600291 5.13,18.54 C8.4300165,12.8999718 12.8999718,8.4300165 18.54,5.13 C24.3600291,1.7099829 30.6599661,5.68434189e-14 37.44,5.68434189e-14 Z M29.88,54.27 L29.88,20.52 L52.38,37.44 L29.88,54.27 Z" id="" fill="#FFFFFF" fill-rule="nonzero"></path>
                </g>
            </g>
        </g>
    </g>
</svg>